<svg width="31" height="30" viewBox="0 0 31 30" fill="none" xmlns="http://www.w3.org/2000/svg">
<rect x="0.5" width="30" height="30" rx="4" fill="#68AD79"/>
<path d="M5.5 22.5H25.5C26.1875 22.5 26.75 21.9375 26.75 21.25C26.75 20.5625 26.1875 20 25.5 20H5.5C4.8125 20 4.25 20.5625 4.25 21.25C4.25 21.9375 4.8125 22.5 5.5 22.5ZM5.5 16.25H25.5C26.1875 16.25 26.75 15.6875 26.75 15C26.75 14.3125 26.1875 13.75 25.5 13.75H5.5C4.8125 13.75 4.25 14.3125 4.25 15C4.25 15.6875 4.8125 16.25 5.5 16.25ZM4.25 8.75C4.25 9.4375 4.8125 10 5.5 10H25.5C26.1875 10 26.75 9.4375 26.75 8.75C26.75 8.0625 26.1875 7.5 25.5 7.5H5.5C4.8125 7.5 4.25 8.0625 4.25 8.75Z" fill="white"/>
</svg>
