<svg width="28" height="28" viewBox="0 0 28 28" fill="none" xmlns="http://www.w3.org/2000/svg">
<circle cx="14" cy="14" r="11.6667" stroke="#68AD79" stroke-width="1.5"/>
<path d="M12.5366 11.6666C12.5366 10.5667 12.5366 10.0167 12.1739 9.67502C11.8112 9.33331 11.2275 9.33331 10.06 9.33331C8.8925 9.33331 8.30876 9.33331 7.94606 9.67502C7.58337 10.0167 7.58337 10.5667 7.58337 11.6666C7.58337 12.7666 7.58337 13.3166 7.94607 13.6583C8.30876 14 8.8925 14 10.06 14C11.2275 14 11.8112 14 12.1739 13.6583C12.5366 13.3166 12.5366 12.7666 12.5366 11.6666ZM12.5366 11.6666L12.5366 14.0801C12.5366 16.2192 10.979 18.0332 8.82168 18.6666M20.4167 11.6666C20.4167 10.5667 20.4167 10.0167 20.054 9.67502C19.6913 9.33331 19.1076 9.33331 17.9401 9.33331C16.7726 9.33331 16.1889 9.33331 15.8262 9.67502C15.4635 10.0167 15.4635 10.5667 15.4635 11.6666C15.4635 12.7666 15.4635 13.3166 15.8262 13.6583C16.1889 14 16.7726 14 17.9401 14C19.1076 14 19.6913 14 20.054 13.6583C20.4167 13.3166 20.4167 12.7666 20.4167 11.6666ZM20.4167 11.6666V14.0801C20.4167 16.2192 18.8591 18.0332 16.7018 18.6666" stroke="#68AD79" stroke-width="1.5" stroke-linecap="round"/>
</svg>
