<svg width="152" height="28" viewBox="0 0 152 28" fill="none" xmlns="http://www.w3.org/2000/svg">
<path d="M5.11169 14.9758H13.8951V10.4706H5.11169V4.92324H17.0722V0.123901H0.00976562V26.6421H17.5345V21.8512H5.11169V14.9674V14.9758Z" fill="#62C8A1"/>
<path d="M51.0795 6.34373C47.7762 6.34373 44.9941 7.70537 42.8004 10.395L45.4312 13.6478C47.0954 11.8491 48.8017 10.9413 50.4995 10.9413C51.6762 10.9413 52.5756 11.2607 53.1976 11.8911C53.8195 12.5215 54.1305 13.4041 54.1305 14.5219V15.4801H49.264C47.0702 15.4801 45.3051 15.9928 44.0191 17.0183C42.7332 18.0437 42.086 19.4474 42.086 21.2293C42.0607 22.0277 42.212 22.8262 42.5146 23.5575C42.8172 24.2887 43.2711 24.9527 43.851 25.4823C45.0278 26.5833 46.6331 27.1381 48.6504 27.1381C51.0458 27.1381 52.9958 26.3312 54.4499 24.7342L54.5592 24.6081V26.6506H59.2325V14.8413C59.2325 12.1013 58.4928 9.97476 57.0303 8.52907C55.5678 7.08339 53.5674 6.33533 51.0879 6.33533L51.0795 6.34373ZM54.1305 19.2372C54.1474 19.7836 54.0465 20.3215 53.8448 20.8174C53.643 21.3217 53.3405 21.7672 52.9538 22.1286C52.1553 22.8851 51.1131 23.2885 50.0372 23.2549C49.3144 23.2885 48.6 23.0784 48.0032 22.6581C47.751 22.4732 47.5493 22.2211 47.4148 21.9353C47.2803 21.6495 47.2131 21.3301 47.2215 21.0107C47.2215 19.6239 48.1461 18.9262 49.9616 18.9262H54.1305V19.2372Z" fill="#62C8A1"/>
<path d="M72.6976 22.263C72.0168 22.2883 71.336 22.1538 70.7056 21.8848C70.0752 21.6159 69.5037 21.204 69.033 20.6913C68.0916 19.649 67.6041 18.3042 67.6041 16.7072C67.5621 15.2532 68.0748 13.8327 69.033 12.7736C69.5037 12.2525 70.0752 11.8491 70.7056 11.5801C71.336 11.3111 72.0168 11.1767 72.6976 11.2019C74.5215 11.2019 76.0765 12.1685 77.3205 14.0764L80.859 11.2103C80.0689 9.74778 78.9258 8.52903 77.5474 7.67171C76.0513 6.78076 74.3534 6.32689 72.6304 6.36051C69.7978 6.36051 67.3603 7.36912 65.3935 9.35274C64.4354 10.2941 63.6789 11.4372 63.1662 12.7064C62.6535 13.9756 62.4013 15.3372 62.4265 16.7156C62.4013 18.1025 62.6535 19.4725 63.1578 20.7501C63.6705 22.0277 64.427 23.1792 65.3851 24.1374C67.3435 26.1378 69.7894 27.1464 72.622 27.1464C74.345 27.1801 76.0345 26.7178 77.5222 25.8268C78.9174 24.9695 80.0605 23.7424 80.859 22.2715L77.3205 19.4389C76.0261 21.3217 74.4711 22.2715 72.6892 22.2715L72.6976 22.263Z" fill="#62C8A1"/>
<path d="M91.8276 21.6579C91.2477 21.162 90.9535 20.3467 90.9535 19.1952V11.2523H96.3748V6.78078H90.9535V0.123901L85.86 2.05709V6.78918H82.8425V11.2607H85.86V19.6911C85.86 22.1538 86.5324 24.0366 87.852 25.2721C89.1716 26.5077 91.0628 27.1381 93.4582 27.1381C94.6518 27.1381 95.8369 26.9699 96.9968 26.6674V22.2379C95.7024 22.3387 94.8871 22.3975 94.5845 22.3975C93.3322 22.3891 92.4076 22.1454 91.8276 21.6663V21.6579Z" fill="#62C8A1"/>
<path d="M115.37 8.99979C113.723 7.24312 111.538 6.35217 108.915 6.35217C106.108 6.35217 103.729 7.3692 101.821 9.36122C100.888 10.3278 100.157 11.4793 99.6612 12.7485C99.1653 14.0177 98.93 15.3793 98.9552 16.7493C98.93 18.1278 99.1737 19.4978 99.6864 20.7754C100.199 22.053 100.956 23.1961 101.914 24.1543C103.881 26.1379 106.394 27.1465 109.378 27.1465C112.16 27.1465 114.849 26.1043 116.951 24.2047L114.849 20.6073C113.185 21.9269 111.395 22.5909 109.529 22.5909C108.125 22.5909 106.932 22.2379 105.99 21.5487C105.024 20.8342 104.343 19.792 104.049 18.5985L104.024 18.5144H117.531C117.749 17.5562 117.858 16.5812 117.867 15.5978C117.867 12.9754 117.026 10.7649 115.37 9.01661V8.99979ZM104.032 14.7825L104.057 14.6985C104.318 13.5386 104.923 12.4963 105.78 11.7147C106.604 10.9834 107.646 10.5884 108.722 10.6052C109.798 10.58 110.848 10.975 111.664 11.7147C112.067 12.0929 112.395 12.5552 112.614 13.0679C112.832 13.589 112.941 14.1437 112.933 14.7153V14.7825H104.032Z" fill="#62C8A1"/>
<path d="M126.39 9.18465L126.272 9.34435V6.78077H121.599V26.6337H126.692V16.7325C126.692 14.9926 127.163 13.6646 128.104 12.7989C129.046 11.9247 130.306 11.454 131.895 11.454H133.223V6.78077C132.685 6.62108 132.13 6.54543 131.576 6.55384C130.575 6.52862 129.575 6.74715 128.676 7.20944C127.776 7.66332 126.986 8.34413 126.39 9.17624V9.18465Z" fill="#62C8A1"/>
<path d="M143.839 6.34375C140.536 6.34375 137.753 7.70538 135.56 10.395L138.191 13.6478C139.855 11.8491 141.561 10.9414 143.259 10.9414C144.436 10.9414 145.343 11.2608 145.957 11.8911C146.57 12.5215 146.907 13.4041 146.907 14.522V15.4801H142.032C139.838 15.4801 138.073 15.9929 136.787 17.0183C135.501 18.0437 134.862 19.4474 134.862 21.2293C134.837 22.0278 134.988 22.8262 135.291 23.5659C135.593 24.3056 136.047 24.9612 136.619 25.4907C137.795 26.5918 139.401 27.1465 141.418 27.1465C143.814 27.1465 145.764 26.3396 147.218 24.7426L147.327 24.6165V26.659H152V14.8498C152 12.1097 151.261 9.98318 149.79 8.53749C148.327 7.09181 146.327 6.34375 143.847 6.34375H143.839ZM146.907 19.2372C146.923 19.7836 146.823 20.3215 146.621 20.8174C146.419 21.3217 146.117 21.7672 145.73 22.1286C144.931 22.8851 143.881 23.2885 142.805 23.2549C142.082 23.2885 141.376 23.0784 140.779 22.6581C140.527 22.4732 140.325 22.2211 140.191 21.9353C140.056 21.6495 139.989 21.3301 139.998 21.0107C139.998 19.6239 140.914 18.9263 142.738 18.9263H146.915V19.2372H146.907Z" fill="#62C8A1"/>
<path d="M25.2251 6.78917H19.5432L25.6538 15.7491H28.3098L29.8227 13.5301L25.2251 6.78076V6.78917Z" fill="#62C8A1"/>
<path d="M33.8826 19.4978H31.2265L29.7136 21.7168L33.0757 26.6422H38.7576L33.8826 19.4978Z" fill="#62C8A1"/>
<path d="M39.3626 5.25938L32.5712 6.80593L30.4279 10.3529L33.6471 9.58803L28.7889 16.7156H26.3094L19.5432 26.6337H25.2251L30.7557 18.5227H33.2352L37.6647 12.0255L38.4464 15.6145L40.5897 12.0676L39.371 5.25098L39.3626 5.25938Z" fill="#62C8A1"/>
</svg>
