<svg width="178" height="48" viewBox="0 0 178 48" fill="none" xmlns="http://www.w3.org/2000/svg">
<path d="M24.5007 0C11.4432 0 0.855713 10.5875 0.855713 23.645C0.855713 36.7025 11.4432 47.2899 24.5007 47.2899C37.5582 47.2899 48.1456 36.7025 48.1456 23.645C48.1456 10.5875 37.5617 0 24.5007 0ZM24.5007 43.3183C13.6345 43.3183 4.82731 34.5111 4.82731 23.645C4.82731 12.7788 13.6345 3.9716 24.5007 3.9716C35.3668 3.9716 44.174 12.7788 44.174 23.645C44.174 34.5111 35.3668 43.3183 24.5007 43.3183Z" fill="#62C8A1"/>
<path d="M14.819 29.1147H34.2694L24.5006 14.7054L14.819 29.1147Z" fill="#62C8A1"/>
<path d="M58.0502 10.0788V12.0368V18.7955V22.7113V36.3506H61.9625V22.7113H72.5186V18.7955H61.9625V12.0368H75.2465V8.12439H58.0502V10.0788Z" fill="#62C8A1"/>
<path d="M99.1876 8.40308H95.2753V36.3471H99.1876V8.40308Z" fill="#62C8A1"/>
<path d="M87.0464 29.7347C86.4925 31.0725 85.3811 32.7936 83.3117 32.9538C79.8871 33.2221 79.8418 29.7521 79.8418 29.7521V18.7954H75.4835C75.4835 18.7954 75.4382 27.3065 75.4835 29.9751C75.5288 32.6438 77.5285 36.7338 81.7754 36.692C84.2977 36.6641 86.0431 35.1486 87.0464 33.9223V36.3506H90.9588V18.7989H87.0464V29.7382V29.7347Z" fill="#62C8A1"/>
<path d="M144.241 29.7347C143.687 31.0725 142.576 32.7936 140.506 32.9538C137.082 33.2221 137.036 29.7521 137.036 29.7521V18.7954H132.678C132.678 18.7954 132.633 27.3065 132.678 29.9751C132.723 32.6438 134.723 36.7338 138.97 36.692C141.492 36.6641 143.238 35.1486 144.241 33.9223V36.3506H148.153V18.7989H144.241V29.7382V29.7347Z" fill="#62C8A1"/>
<path d="M111.385 33.0305C108.629 33.0305 106.392 30.7137 106.392 27.857C106.392 25.0002 108.629 22.6835 111.385 22.6835C112.653 22.6835 113.806 23.1782 114.684 23.9829L117.527 21.377C115.893 19.7814 113.663 18.799 111.2 18.799C106.197 18.799 102.142 22.8542 102.142 27.857C102.142 32.8598 106.197 36.915 111.2 36.915C113.719 36.915 115.997 35.8873 117.638 34.229L114.931 31.4976C114.025 32.4452 112.771 33.034 111.385 33.034V33.0305Z" fill="#62C8A1"/>
<path d="M124.094 21.7601V18.7988H120.181V36.3505H124.094V26.3274C125.686 21.3943 130.337 22.5927 130.337 22.5927V18.7988C126.828 18.5898 124.912 20.5791 124.094 21.7601Z" fill="#62C8A1"/>
<path d="M177.599 24.3104C177.481 22.1469 175.937 18.7954 171.729 18.7954C167.52 18.7954 165.858 21.7602 165.858 21.7602C165.858 21.7602 164.792 18.7954 160.876 18.7954C157.741 18.7954 156.18 20.3701 155.494 21.3979V18.7954H151.582V36.3471H155.494V25.8955C156.069 24.4114 157.246 22.2688 159.364 22.1155C162.598 21.8786 162.598 24.6065 162.598 24.6065V36.3471H166.75C166.75 36.3471 166.778 29.8532 166.75 28.0451C166.722 26.2369 167.165 22.0249 170.398 22.0249C173.631 22.0249 173.481 25.2858 173.481 25.2858V36.3436H177.602C177.602 36.3436 177.721 26.4704 177.602 24.3069L177.599 24.3104Z" fill="#62C8A1"/>
</svg>
