<svg width="1339" height="808" viewBox="0 0 1339 808" fill="none" xmlns="http://www.w3.org/2000/svg">
<g opacity="0.1">
<path d="M859.293 987.593C884.98 886.428 891.229 776.784 897.291 670.747C899.179 637.715 901.147 603.534 903.646 570.195C914.761 422.418 931.753 253.618 992.672 120.764C1051.54 -7.60101 1145.57 -83.216 1214.12 -124.035C1243.63 -141.606 1274.4 -156.759 1304.15 -171.414C1333.35 -185.801 1363.53 -200.647 1392.57 -217.834C1523.39 -295.214 1637.33 -422.428 1722.11 -585.743L1719.98 -588.044C1635.53 -425.305 1521.96 -298.513 1391.58 -221.402C1362.63 -204.253 1332.47 -189.445 1303.3 -175.059C1273.52 -160.404 1242.7 -145.212 1213.11 -127.603C1144.24 -86.5919 1049.71 -10.5551 990.465 118.616C929.227 252.198 912.182 421.498 901.014 569.735C898.488 603.112 896.547 637.332 894.659 670.401C888.596 776.209 882.347 885.584 856.794 986.25L859.293 987.555V987.593Z" fill="#62C8A1"/>
<path d="M833.313 984.908C858.84 885.392 867.163 779.125 875.22 676.386C877.985 641.168 880.83 604.761 884.34 569.39C905.187 358.811 929.411 268.848 952.492 202.978C961.612 176.967 971.823 152.376 982.858 129.895C1043.94 5.32758 1139.26 -67.9472 1208.48 -107.5C1231.64 -120.736 1254.99 -132.36 1282.91 -145.71L1297.56 -152.693C1327.69 -167.041 1358.85 -181.888 1388.82 -199.19C1438.33 -227.732 1486.09 -263.871 1530.78 -306.57C1603.78 -376.277 1668.31 -463.669 1722.53 -566.292L1720.43 -568.632C1666.37 -466.355 1602.07 -379.269 1529.32 -309.792C1484.78 -267.208 1437.19 -231.223 1387.83 -202.757C1357.92 -185.532 1326.81 -170.685 1296.71 -156.376L1282.06 -149.393C1254.11 -136.004 1230.74 -124.38 1207.5 -111.106C1137.96 -71.3615 1042.16 2.29688 980.704 127.631C969.59 150.304 959.299 175.049 950.125 201.213C910.931 313.158 894.072 444.056 881.734 568.815C878.224 604.263 875.379 640.708 872.614 675.926C864.583 778.472 856.26 884.471 830.866 983.565L833.366 984.908H833.313Z" fill="url(#paint0_linear_29_1023)"/>
<path d="M807.361 982.26C832.595 884.855 842.806 782.309 852.698 683.177C856.474 645.427 860.356 606.411 865.009 568.584C880.006 447.048 899.63 319.488 941.245 209.998C950.897 184.717 961.586 160.816 973.02 138.987C1023.12 43.4228 1102.57 -36.1052 1202.82 -91.0037C1228.5 -105.083 1255.09 -117.551 1278.01 -128.14L1290.54 -133.894C1321.73 -148.242 1353.98 -163.089 1385.02 -180.545C1435.19 -208.704 1483.51 -244.497 1528.66 -286.851C1601.44 -355.023 1666.8 -442.531 1722.93 -546.842L1720.83 -549.182C1664.88 -445.178 1599.73 -357.977 1527.2 -290.035C1482.2 -247.835 1434.05 -212.195 1384.03 -184.112C1353.08 -166.734 1320.85 -151.887 1289.71 -137.539L1277.19 -131.784C1254.24 -121.158 1227.57 -108.689 1201.86 -94.5715C1101.16 -39.4044 1021.28 40.5457 970.893 136.685C959.379 158.668 948.61 182.722 938.905 208.157C897.104 318.146 877.427 446.05 862.377 567.932C857.724 605.797 853.815 644.851 850.065 682.64C840.2 781.58 829.99 883.896 804.861 980.918L807.361 982.26Z" fill="#62C8A1"/>
<path d="M781.408 979.575C806.19 884.778 818.103 786.414 829.643 691.272C834.589 650.529 839.695 608.368 845.704 567.779C863.307 449.235 885.723 324.668 930.023 217.019C940.18 192.466 951.349 169.294 963.208 148.079C1015.01 55.5842 1095.92 -21.3735 1197.18 -74.4689C1222.73 -87.8962 1248.74 -99.6355 1273.17 -110.531L1283.44 -115.096C1315.72 -129.444 1349.12 -144.291 1381.27 -161.9C1432.11 -189.714 1480.98 -225.123 1526.56 -267.093C1599.12 -333.808 1665.33 -421.354 1723.35 -527.391L1721.25 -529.77C1663.39 -424.078 1597.39 -336.8 1525.09 -270.316C1479.68 -228.461 1430.94 -193.205 1380.28 -165.468C1348.21 -147.935 1314.87 -133.089 1282.61 -118.741L1272.35 -114.175C1247.89 -103.28 1221.85 -91.5024 1196.25 -78.0367C1094.54 -24.7111 1013.22 52.6685 961.107 145.701C949.168 167.031 937.92 190.394 927.683 215.101C883.197 323.21 860.701 448.122 843.045 567.011C837.036 607.677 831.93 649.877 826.984 690.658C815.471 785.608 803.585 883.819 778.882 978.271L781.381 979.613L781.408 979.575Z" fill="#62C8A1"/>
<path d="M755.457 976.89C779.601 885.354 792.976 791.593 805.926 700.862C812.228 656.591 818.769 610.784 826.374 566.934C845.572 456.946 871.551 330.154 918.776 224.039C929.439 200.216 941.086 177.734 953.37 157.171C1007.64 66.4795 1087.76 -5.91293 1191.52 -57.9726C1216.88 -70.7477 1242.3 -81.7964 1268.31 -92.9603L1276.39 -96.4514C1309.74 -110.761 1344.25 -125.569 1377.46 -143.293C1428.94 -170.724 1478.4 -205.75 1524.43 -247.413C1596.76 -312.669 1663.82 -400.331 1723.78 -508.018L1721.71 -510.435C1661.93 -403.093 1595.08 -315.7 1523.02 -250.712C1477.15 -209.202 1427.85 -174.291 1376.53 -146.938C1343.4 -129.291 1308.94 -114.482 1275.62 -100.173L1267.54 -96.6815C1241.51 -85.4793 1216.06 -74.3922 1190.64 -61.617C1086.43 -9.32724 1005.91 63.4104 951.35 154.639C938.985 175.317 927.259 197.952 916.516 221.929C869.078 328.542 842.993 455.68 823.768 565.975C816.136 609.902 809.622 655.747 803.293 700.057C790.37 790.595 777.022 884.241 752.957 975.47L755.43 976.851L755.457 976.89Z" fill="#62C8A1"/>
<path d="M729.478 974.242C752.771 886.696 767.316 798.076 781.356 712.371C789.652 661.693 797.496 613.815 807.042 566.167C828.581 459.056 857.378 335.524 907.555 231.098C918.723 208.003 930.848 186.213 943.559 166.302C999.505 78.7558 1081.06 8.85699 1185.91 -41.3995C1211.06 -53.4841 1236.96 -64.341 1263.47 -75.313L1268.89 -77.5765C1303.49 -91.8862 1339.25 -106.695 1373.71 -124.61C1425.89 -151.695 1475.88 -186.338 1522.36 -227.617C1594.42 -291.454 1662.36 -379.231 1724.23 -488.491L1722.18 -490.907C1660.49 -381.954 1592.79 -294.447 1520.97 -230.878C1474.65 -189.714 1424.82 -155.186 1372.84 -128.217C1338.46 -110.378 1302.72 -95.569 1268.18 -81.2594L1262.75 -79.0343C1236.19 -68.0239 1210.26 -57.1669 1185.08 -45.044C1079.81 5.44269 997.883 75.6866 941.617 163.731C928.827 183.757 916.622 205.701 905.375 228.911C854.985 333.798 826.108 457.713 804.49 565.131C794.944 612.856 787.099 660.772 778.777 711.527C764.763 797.117 750.245 885.622 727.005 972.899L729.478 974.281V974.242Z" fill="#62C8A1"/>
<path d="M703.523 971.557C725.726 888.921 741.016 806.132 755.801 726.067C766.118 670.171 775.876 617.383 787.709 565.361C811.641 460.705 843.23 340.013 896.305 238.119C907.766 216.098 920.37 194.998 933.745 175.394C991.367 90.9938 1074.3 23.6271 1180.27 -24.903C1205.1 -36.2971 1229.43 -46.1182 1258.63 -57.7808L1261.23 -58.8167C1297.11 -73.1264 1334.2 -87.8963 1369.94 -105.966C1422.77 -132.667 1473.35 -166.964 1520.23 -207.898C1593.06 -271.237 1659.93 -356.634 1724.63 -469.079L1722.58 -471.534C1658.07 -359.435 1591.44 -274.306 1518.84 -211.198C1472.1 -170.417 1421.71 -136.235 1369.03 -109.61C1333.37 -91.5793 1296.31 -76.8093 1260.49 -62.538L1257.88 -61.5021C1228.66 -49.8395 1204.3 -40.0184 1179.42 -28.586C1073.03 20.1359 989.718 87.848 931.804 172.67C918.349 192.389 905.692 213.604 894.151 235.779C840.864 338.095 809.141 459.209 785.156 564.134C773.297 616.27 763.538 669.135 753.221 725.07C738.463 805.02 723.174 887.732 701.05 970.137L703.523 971.518V971.557Z" fill="url(#paint1_linear_29_1023)"/>
<path d="M677.573 968.871C698.34 892.259 713.922 816.145 729.025 742.525C741.762 680.414 753.781 621.756 768.379 564.556C793.002 468.762 828.501 345.844 885.059 245.139C896.972 223.924 910.054 203.515 923.881 184.525C983.125 103.309 1067.47 38.3972 1174.6 -8.36819C1200.8 -19.839 1227.71 -30.1588 1253.76 -40.1718C1290.83 -54.4047 1329.18 -69.1364 1366.16 -87.3208C1419.66 -113.638 1470.8 -147.59 1518.13 -188.179C1590.69 -250.137 1658.39 -335.649 1725.06 -449.666L1723.04 -452.122C1656.56 -338.45 1589.1 -253.206 1516.77 -191.478C1469.57 -151.005 1418.63 -117.206 1365.31 -90.9653C1328.38 -72.7809 1290.09 -58.0876 1253.07 -43.8931C1227.01 -33.8801 1200.05 -23.5602 1173.83 -12.0895C1066.3 34.8678 981.61 100.048 922.047 181.686C908.113 200.791 894.977 221.316 882.985 242.684C826.188 343.849 790.556 467.112 765.88 563.175C751.255 620.49 739.21 679.225 726.473 741.375C711.396 814.918 695.814 890.955 675.1 967.414L677.573 968.795V968.871Z" fill="#62C8A1"/>
<path d="M651.618 966.224C670.551 896.94 685.894 828.537 700.705 762.436C716.313 692.806 731.044 627.051 749.046 563.789C775.69 470.718 813.927 351.177 873.809 252.198C886.201 231.712 899.735 212.031 914.041 193.655C974.854 115.662 1060.61 53.2439 1168.94 8.20486C1194.52 -2.46027 1220.9 -12.2046 1246.42 -21.6037L1248.87 -22.5244C1284.08 -35.5297 1323.99 -50.2615 1362.36 -68.6377C1416.52 -94.5716 1468.22 -128.14 1516 -168.383C1588.3 -228.998 1656.82 -314.626 1725.45 -430.139L1723.43 -432.633C1654.99 -317.427 1586.7 -232.106 1514.64 -171.683C1467.02 -131.593 1415.51 -98.1395 1361.51 -72.2439C1323.22 -53.906 1283.36 -39.1744 1248.18 -26.2074L1245.73 -25.2866C1220.21 -15.8491 1193.77 -6.1431 1168.17 4.56039C1059.46 49.7529 973.338 112.439 912.233 190.855C897.847 209.346 884.206 229.18 871.762 249.743C811.641 349.144 773.244 469.03 746.547 562.408C728.518 625.823 713.761 691.655 698.125 761.324C683.314 827.386 667.998 895.75 649.092 964.92L651.565 966.34L651.618 966.224Z" fill="#62C8A1"/>
<path d="M625.639 963.539C642.232 903.308 656.591 844.036 670.444 786.682C689.51 707.845 707.538 633.381 729.688 562.945C772.153 428.71 813.13 335.026 862.561 259.181C875.405 239.462 889.418 220.472 904.229 202.709C966.557 127.9 1053.75 68.014 1163.33 24.663C1187.98 14.8802 1213.37 5.86475 1237.94 -2.80545L1244.06 -4.95383C1285.01 -19.4937 1321.91 -32.8826 1358.64 -50.0312C1413.47 -75.5815 1465.72 -108.805 1513.92 -148.703C1586.94 -208.819 1654.32 -292.106 1725.91 -410.766L1723.91 -413.298C1652.52 -294.984 1585.37 -211.965 1512.6 -152.04C1464.52 -112.257 1412.46 -79.1877 1357.81 -53.7141C1321.17 -36.6422 1284.32 -23.215 1243.42 -8.7135L1237.3 -6.56503C1212.73 2.14355 1187.31 11.159 1162.64 20.9417C1052.68 64.4462 965.175 124.601 902.554 199.717C887.663 217.594 873.57 236.699 860.647 256.534C811.029 332.686 769.893 426.677 727.295 561.334C705.092 631.961 687.063 706.502 667.971 785.416C654.118 842.693 639.785 901.927 623.193 962.12L625.666 963.539H625.639Z" fill="#62C8A1"/>
<path d="M599.689 960.854C613.33 911.748 625.801 863.41 637.846 816.644C661.113 726.413 683.104 641.168 710.359 562.139C755.005 433.659 799.783 339.629 851.316 266.201C864.584 247.288 879.076 228.95 894.392 211.801C959.114 139.217 1045.21 83.4361 1157.67 41.1976C1181.6 32.1822 1206.22 23.8189 1230.02 15.7242L1239.17 12.6167C1278.55 -0.772247 1317.02 -14.2379 1354.84 -31.3865C1410.33 -56.5531 1463.14 -89.3926 1511.8 -128.946C1584.55 -187.796 1652.73 -271.16 1726.33 -391.277L1724.34 -393.809C1650.95 -273.999 1582.98 -190.903 1510.5 -132.283C1462 -92.8453 1409.35 -60.121 1354.04 -35.0311C1316.33 -17.9209 1277.88 -4.49353 1238.55 8.89542L1229.41 12.0029C1205.58 20.0976 1180.93 28.4609 1156.97 37.4763C1044.18 79.8299 957.731 135.879 892.744 208.77C877.348 226.034 862.803 244.449 849.428 263.477C797.682 337.174 752.744 431.549 707.966 560.413C680.631 639.634 658.614 724.955 635.32 815.301C623.275 862.028 610.83 910.328 597.189 959.396L599.662 960.815L599.689 960.854Z" fill="#62C8A1"/>
<path d="M573.736 958.206C583.602 922.95 593.041 888.078 602.188 854.356C630.56 749.623 657.337 650.721 691.054 561.372C738.359 436.805 785.717 345.269 840.094 273.26C853.842 255.076 868.812 237.467 884.581 220.932C950.711 151.647 1038.22 98.283 1152.06 57.7325C1175.03 49.5226 1198.67 41.8499 1221.51 34.4074L1234.35 30.2257C1272.06 17.911 1312.1 4.48361 1351.09 -12.7417C1407.27 -37.5247 1460.64 -69.9804 1509.73 -109.227C1583.2 -167.616 1650.12 -248.602 1726.78 -371.865L1724.82 -374.435C1648.37 -251.518 1581.65 -170.762 1508.45 -112.603C1459.52 -73.5099 1406.31 -41.1692 1350.34 -16.4246C1311.44 0.76236 1271.45 14.1896 1233.79 26.466L1220.95 30.6477C1198.08 38.0902 1174.44 45.7631 1151.44 53.9729C1037.26 94.6385 949.462 148.233 883.038 217.786C867.19 234.398 852.14 252.122 838.313 270.383C783.696 342.66 736.178 434.503 688.741 559.454C654.944 649.033 628.141 748.05 599.742 852.898C590.621 886.62 581.182 921.492 571.317 956.71L573.79 958.168L573.736 958.206Z" fill="#62C8A1"/>
<path d="M547.783 955.521C552.835 937.643 557.781 919.958 562.674 902.464C597.242 779.048 629.868 662.46 671.695 560.528C720.861 441.447 772.261 349.757 828.819 280.281C842.992 262.863 858.441 245.945 874.714 230.024C942.201 164.077 1031.07 113.13 1146.36 74.2672C1168.2 66.863 1190.64 59.9192 1212.31 53.1671L1229.46 47.8347C1265.41 36.5941 1307.13 23.1667 1347.28 5.94138C1404.11 -18.4579 1458.06 -50.53 1507.57 -89.4308C1601.33 -162.667 1674.16 -268.398 1727.16 -352.376L1725.19 -354.946C1672.35 -271.237 1599.73 -165.775 1506.29 -92.8069C1456.92 -54.0211 1403.18 -22.0641 1346.51 2.25851C1306.47 19.4455 1264.8 32.8728 1228.87 44.1134L1211.72 49.4459C1190.03 56.1979 1167.58 63.1417 1145.73 70.5459C1030.11 109.523 940.952 160.662 873.172 226.878C856.819 242.876 841.29 259.871 827.037 277.403C770.24 347.187 718.654 439.183 669.329 558.648C627.395 660.849 594.715 777.552 560.121 901.121C555.228 918.615 550.283 936.301 545.23 954.14L547.703 955.598L547.783 955.521Z" fill="#62C8A1"/>
<path d="M521.804 952.835C560.334 817.296 600.167 677.154 652.337 559.722C703.95 444.362 757.982 355.243 817.571 287.301C832.196 270.613 848.097 254.423 864.876 239.116C933.639 176.507 1023.86 127.977 1140.73 90.7637C1161.49 84.1267 1182.79 77.7967 1203.43 71.6969C1210.47 69.6252 1217.55 67.5152 1224.62 65.4052C1269.19 52.0546 1306.47 40.0084 1343.53 24.5478C1401.05 0.532104 1455.53 -31.1947 1505.5 -69.7502C1598.35 -140.992 1669.88 -242.809 1727.61 -332.964L1725.67 -335.573C1668.1 -245.648 1596.76 -144.099 1504.25 -73.1263C1454.44 -34.6858 1400.14 -3.07407 1342.79 20.8649C1305.8 36.2871 1268.6 48.3334 1224.09 61.6456C1217.02 63.7556 1209.97 65.8272 1202.9 67.9372C1182.29 74.037 1160.96 80.367 1140.17 87.004C1023.01 124.294 932.496 172.977 863.467 235.855C846.608 251.239 830.627 267.505 815.923 284.27C756.12 352.481 701.876 441.907 650.104 557.65C597.773 675.389 557.914 815.685 519.331 951.377L521.804 952.835Z" fill="#62C8A1"/>
<path d="M495.851 950.15C540.763 793.281 581.287 666.68 633.005 558.878C686.958 447.125 743.649 360.576 806.323 294.283C821.4 278.324 837.78 262.825 855.063 248.17C925.954 188.093 1014.95 143.322 1135.12 107.26C1154.58 101.39 1174.52 95.7893 1193.8 90.3417C1202.44 87.8864 1211.11 85.4695 1219.78 82.9759C1258.28 71.9655 1299.45 59.5356 1339.78 43.1543C1397.96 19.5606 1453.01 -11.821 1503.4 -50.0697C1595.85 -119.815 1668.84 -222.438 1728.03 -313.59L1726.09 -316.199C1667.03 -225.277 1594.26 -122.922 1502.15 -53.4456C1451.92 -15.312 1397.03 15.9161 1339.04 39.4714C1298.81 55.8144 1257.7 68.2058 1219.25 79.2162C1210.58 81.6715 1201.91 84.1268 1193.27 86.5821C1173.96 92.0298 1154.02 97.6308 1134.56 103.5C1014.1 139.639 924.864 184.563 853.707 244.871C836.37 259.564 819.911 275.178 804.754 291.176C741.841 357.737 684.963 444.593 630.825 556.691C578.947 664.762 538.369 791.554 493.378 948.692L495.824 950.15H495.851Z" fill="#62C8A1"/>
<path d="M469.898 947.503C520.712 771.26 563.709 654.826 613.673 558.111C669.912 449.887 729.262 365.909 795.074 301.342C810.603 286.112 827.461 271.304 845.224 257.301C917.205 200.638 1007.53 158.207 1129.45 123.833C1147.56 118.693 1166.12 113.744 1184.04 108.948C1194.31 106.186 1204.6 103.462 1214.89 100.623C1253.31 90.1498 1294.58 78.1805 1335.95 61.8759C1394.8 38.6658 1450.43 7.66785 1501.24 -30.2355C1593.08 -98.3312 1664.69 -197.271 1728.4 -294.063L1726.49 -296.71C1662.94 -200.187 1591.52 -101.515 1500.02 -33.65C1449.36 4.13834 1393.92 35.0212 1335.24 58.1546C1293.94 74.4208 1252.75 86.3902 1214.35 96.8252C1204.06 99.6257 1193.77 102.388 1183.51 105.15C1165.56 109.946 1147 114.933 1128.89 120.074C1006.68 154.524 916.115 197.07 843.894 253.963C826.052 268.004 809.114 282.889 793.532 298.196C727.454 362.993 667.918 447.278 611.492 555.848C561.396 652.831 518.292 769.534 467.398 946.045L469.844 947.503H469.898Z" fill="#62C8A1"/>
<path d="M443.948 944.817C492.343 778.165 540.127 655.018 594.345 557.267C652.02 453.915 715.758 370.167 783.856 308.325C799.784 293.861 817.148 279.744 835.415 266.355C908.327 213.106 999.985 173.054 1123.84 140.33C1140.52 135.879 1157.56 131.583 1174.02 127.401C1186.01 124.37 1198.06 121.301 1210.08 118.194C1246.67 108.68 1289.77 96.7484 1332.23 80.4821C1391.77 57.6557 1447.93 27.0415 1499.2 -10.5549C1590.64 -77.2311 1663.63 -176.9 1728.89 -274.651L1726.97 -277.298C1616.83 -112.257 1551.82 -53.2155 1497.97 -13.9694C1446.89 23.512 1390.89 54.0497 1331.54 76.761C1289.18 92.9889 1246.13 104.882 1209.6 114.396C1197.58 117.503 1185.56 120.572 1173.57 123.603C1157.08 127.785 1140.04 132.081 1123.36 136.532C999.24 169.333 907.369 209.5 834.219 262.94C815.871 276.368 798.454 290.524 782.447 305.064C714.109 367.136 650.132 451.191 592.297 554.85C537.92 652.869 490.03 776.324 441.529 943.321L443.975 944.817H443.948Z" fill="#62C8A1"/>
<path d="M417.967 942.17C465.644 779.086 515.555 656.514 574.985 556.5C634.787 456.409 701.29 375.269 772.58 315.383C788.959 301.611 806.775 288.222 825.548 275.524C900.241 225.037 990.49 188.476 1118.18 156.903C1133.17 153.181 1148.23 149.575 1163.3 145.969C1177.26 142.631 1191.22 139.294 1205.21 135.841C1241.74 126.787 1284.95 115.355 1328.46 99.2036C1388.66 76.7992 1445.4 46.5302 1497.07 9.27902C1583.06 -52.3715 1652.09 -140.992 1729.28 -255.124L1727.37 -257.809C1650.36 -143.984 1581.52 -55.5557 1495.87 5.82629C1444.36 42.9624 1387.81 73.1547 1327.76 95.4824C1284.37 111.633 1241.24 123.028 1204.73 132.081C1190.77 135.534 1176.78 138.872 1162.85 142.21C1147.75 145.816 1132.7 149.422 1117.7 153.143C989.772 184.755 899.31 221.431 824.405 272.071C805.579 284.807 787.683 298.273 771.224 312.122C699.668 372.238 632.952 453.646 572.937 554.083C513.321 654.442 463.278 777.283 415.495 940.789L417.941 942.285L417.967 942.17Z" fill="#62C8A1"/>
<path d="M392.015 939.485C438.602 781.196 492.128 655.67 555.653 555.655C617.583 458.672 686.772 380.18 761.358 322.366C778.403 309.13 796.192 296.777 815.736 284.577C912.233 224.385 1025.06 193.54 1112.57 173.399C1125.78 170.33 1139.05 167.338 1152.35 164.384C1168.33 160.778 1184.36 157.21 1200.4 153.412C1234.8 145.317 1280.01 133.961 1324.71 117.81C1385.57 95.8277 1442.88 65.904 1494.99 28.9597C1590.19 -38.1385 1663.15 -138.575 1729.76 -235.75L1727.87 -238.436C1661.45 -141.529 1588.65 -41.3227 1493.82 25.507C1441.86 62.3362 1384.75 92.1448 1324.07 114.089C1279.45 130.202 1234.3 141.557 1199.97 149.614C1183.94 153.373 1167.93 156.98 1151.95 160.547C1138.65 163.54 1125.38 166.532 1112.17 169.563C1024.5 189.742 911.489 220.663 814.699 281.01C795.075 293.248 777.233 305.677 760.109 318.951C685.283 376.996 615.828 455.756 553.712 553.047C490.001 653.368 436.315 779.278 389.595 937.989L392.042 939.485H392.015Z" fill="#62C8A1"/>
<path d="M366.063 936.8C412.384 780.467 468.065 655.517 536.296 554.812C600.3 460.859 672.228 385.014 750.085 329.348C767.581 316.841 785.823 305.179 805.898 293.631C902.289 238.311 1012.16 210.152 1106.9 189.896C1118.15 187.479 1129.45 185.1 1140.75 182.722C1158.7 178.962 1177.24 175.049 1195.53 170.982C1246.64 159.588 1285.33 148.923 1320.93 136.417C1382.49 114.818 1440.32 85.3161 1492.89 48.6403C1587.66 -17.0768 1662.09 -118.28 1730.19 -216.338L1728.3 -219.062C1660.36 -121.234 1586.15 -20.2609 1491.72 45.1876C1439.34 81.7099 1381.66 111.135 1320.29 132.657C1284.77 145.125 1246.16 155.752 1195.11 167.146C1176.84 171.213 1158.3 175.126 1140.36 178.885C1129.05 181.264 1117.75 183.642 1106.51 186.059C1011.6 206.315 901.545 234.551 804.888 290.025C784.759 301.611 766.438 313.35 748.888 325.857C670.765 381.714 598.598 457.828 534.382 552.088C465.911 653.1 410.044 778.434 363.59 935.265L366.037 936.761L366.063 936.8Z" fill="#62C8A1"/>
<path d="M340.109 934.114C386.323 779.163 444.185 654.826 516.963 553.968C583.041 462.931 657.681 389.694 738.835 336.33C756.731 324.552 775.45 313.542 796.058 302.685C892.582 251.853 1004.5 225.497 1101.26 206.392C1110.39 204.589 1119.53 202.786 1128.71 200.983C1149 196.993 1169.98 192.888 1190.66 188.553C1241.77 177.773 1280.78 167.414 1317.15 155.061C1379.38 133.884 1437.8 104.728 1490.76 68.3976C1585.19 3.98483 1658.1 -93.8427 1730.58 -196.888L1728.72 -199.612C1656.4 -96.7967 1583.7 0.800674 1489.62 64.9449C1436.81 101.16 1378.58 130.24 1316.54 151.34C1280.25 163.693 1241.29 174.013 1190.29 184.793C1169.63 189.167 1148.65 193.272 1128.36 197.223C1119.21 199.026 1110.07 200.791 1100.92 202.632C1004.02 221.738 891.944 248.17 795.154 299.117C774.493 310.013 755.72 321.061 737.745 332.877C656.324 386.433 581.419 459.9 515.128 551.244C442.084 652.447 384.037 777.206 337.663 932.618L340.109 934.114Z" fill="#62C8A1"/>
<path d="M314.132 931.467C359.708 779.661 421.425 652.371 497.607 553.2C565.732 464.925 643.111 394.336 727.589 343.389C745.99 332.302 765.162 321.982 786.221 311.816C882.214 265.626 991.66 241.802 1095.63 222.965L1115.81 219.282C1138.73 215.139 1162.45 210.842 1185.8 206.162C1236.21 196.111 1276.74 185.791 1313.38 173.706C1376.29 152.951 1435.24 124.14 1488.67 88.1166C1582.82 24.9699 1654.11 -69.52 1731.01 -177.437L1729.15 -180.199C1652.44 -72.5124 1581.31 21.7474 1487.52 84.6639C1434.29 120.572 1375.5 149.268 1312.77 169.985C1276.21 182.031 1235.76 192.351 1185.43 202.364C1162.08 207.006 1138.39 211.303 1115.47 215.446L1095.28 219.129C991.182 238.004 881.602 261.866 785.371 308.133C764.258 318.299 745.006 328.657 726.552 339.783C641.781 390.922 564.163 461.741 495.825 550.285C419.351 649.839 357.421 777.552 311.686 929.894L314.132 931.428V931.467Z" fill="#62C8A1"/>
<path d="M288.179 928.781C333.809 777.666 397.786 650.989 478.276 552.356C548.448 466.767 628.539 398.786 716.341 350.371C735.167 339.975 754.818 330.345 776.383 320.869C876.337 277.135 986.103 256.648 1089.97 239.462L1102.68 237.352C1128.31 233.093 1154.82 228.681 1180.93 223.771C1231.4 214.295 1272.27 204.32 1309.58 192.351C1373.16 172.018 1432.69 143.591 1486.51 107.874C1580.24 46.0316 1652.86 -49.1488 1731.38 -157.987L1729.55 -160.749C1651.21 -52.1412 1578.75 42.7706 1485.42 104.383C1431.76 139.984 1372.38 168.335 1309.02 188.63C1271.79 200.561 1230.98 210.497 1180.61 219.973C1154.5 224.883 1128.02 229.295 1102.38 233.554L1089.67 235.664C985.704 252.889 875.778 273.375 775.612 317.225C753.993 326.701 734.29 336.368 715.384 346.803C627.289 395.372 546.932 463.582 476.547 549.44C395.738 648.496 331.548 775.595 285.759 927.285L288.206 928.82L288.179 928.781Z" fill="#62C8A1"/>
<path d="M262.227 926.096C308.016 775.403 374.2 649.378 458.917 551.512C531.137 468.455 613.941 403.121 705.093 357.353C724.371 347.647 744.474 338.709 766.571 329.962C865.142 290.946 973.126 272.723 1084.35 255.996L1089.01 255.306C1117.54 250.971 1147.03 246.52 1176.12 241.38C1226.59 232.479 1267.8 222.812 1305.85 211.034C1370.1 191.123 1430.19 163.041 1484.46 127.631C1585.38 62.1059 1663.21 -44.5069 1731.86 -138.536L1730.03 -141.299C1661.53 -47.461 1583.86 58.8834 1483.37 124.14C1429.26 159.435 1369.35 187.402 1305.3 207.274C1267.32 219.052 1226.19 228.681 1175.8 237.582C1146.74 242.684 1117.25 247.173 1088.74 251.469L1084.09 252.16C972.754 268.886 864.637 287.148 765.879 326.24C743.756 335.026 723.574 344.003 704.242 353.709C612.824 399.63 529.728 465.194 457.295 548.52C372.232 646.769 305.782 773.293 259.833 924.561L262.28 926.096H262.227Z" fill="#62C8A1"/>
<path d="M236.274 923.449C282.276 772.986 350.667 647.575 439.586 550.707C513.853 470.104 599.395 407.418 693.845 364.374C713.548 355.397 734.13 347.11 756.732 339.054C861.02 301.956 976.663 286.304 1078.72 272.531C1111.69 268.043 1141.42 263.899 1171.25 258.989C1221.75 250.625 1263.31 241.341 1302.08 229.679C1366.99 210.19 1427.64 182.491 1482.36 147.389C1582.82 83.206 1658.82 -19.6088 1732.29 -119.048L1730.48 -121.848C1657.17 -22.6395 1581.33 79.9452 1481.27 143.898C1426.74 178.885 1366.27 206.507 1301.55 225.958C1262.86 237.582 1221.38 246.866 1170.96 255.191C1141.15 260.14 1111.42 264.245 1078.48 268.733C976.343 282.544 860.595 298.158 756.12 335.333C733.465 343.389 712.857 351.714 693.074 360.729C598.331 403.927 512.524 466.805 438.017 547.676C348.725 644.928 280.042 770.876 233.881 921.953L236.3 923.487L236.274 923.449Z" fill="#62C8A1"/>
<path d="M210.321 920.763C256.562 770.339 327.187 645.542 420.254 549.863C495.532 472.713 586.259 410.986 682.623 371.356C702.779 363.069 723.812 355.473 746.919 348.108C847.724 316.112 958.208 302.838 1065.08 289.987L1073.08 289.027C1101.37 285.613 1134.24 281.508 1166.41 276.559C1216.3 268.848 1259.43 259.602 1298.3 248.323C1363.9 229.257 1425.11 201.903 1480.24 167.108C1580.27 104.229 1654.3 5.2125 1732.69 -99.6356L1730.88 -102.436C1652.65 2.18172 1578.78 100.968 1479.14 163.616C1424.18 198.336 1363.16 225.574 1297.74 244.602C1258.95 255.881 1215.87 265.088 1166.09 272.8C1133.95 277.749 1101.08 281.815 1072.81 285.268L1064.81 286.227C957.863 299.079 847.272 312.391 746.308 344.425C723.147 351.791 702.061 359.425 681.852 367.712C585.195 407.495 494.176 469.414 418.685 546.793C325.246 642.895 254.302 768.229 207.875 919.267L210.294 920.84L210.321 920.763Z" fill="#62C8A1"/>
<path d="M184.344 918.078C230.877 767.577 303.736 643.393 400.898 548.98C478.835 473.48 569.828 416.05 671.378 378.3C692.411 370.589 714.534 363.492 737.083 357.162C834.218 329.923 939.437 318.913 1041.2 308.286L1067.44 305.524C1097.25 302.34 1129.27 298.772 1161.58 294.13C1211.49 286.956 1254.99 278.056 1294.56 266.93C1360.82 248.285 1422.59 221.316 1478.16 186.788C1577.77 125.138 1652.17 26.8114 1730.93 -77.3078L1733.17 -80.2619L1731.36 -83.1008L1729.13 -80.1468C1650.52 23.7422 1576.28 121.877 1477.1 183.259C1421.71 217.671 1360.1 244.564 1294.05 263.132C1254.56 274.258 1211.14 283.12 1161.31 290.294C1129.06 294.936 1097.04 298.503 1067.26 301.688L1041.01 304.45C939.172 315.115 833.873 326.125 736.578 353.364C713.976 359.732 691.799 366.829 670.713 374.579C568.897 412.444 477.612 470.066 399.409 545.796C301.848 640.593 228.671 765.314 181.924 916.505L184.344 918.078Z" fill="#62C8A1"/>
<path d="M158.391 915.392C205.243 764.661 280.335 641.13 381.539 548.136C461.63 474.747 555.362 419.963 660.102 385.282C681.561 378.3 704.136 371.855 727.217 366.215C820.683 343.351 920.823 334.527 1017.64 325.972C1032.34 324.668 1047.05 323.363 1061.75 322.02C1087.92 319.604 1122.38 316.266 1156.65 311.701C1206.62 305.064 1250.47 296.508 1290.72 285.536C1357.68 267.314 1420.01 240.728 1475.98 206.507C1575.22 146.046 1649.38 49.1391 1727.87 -53.484L1733.48 -60.8114L1731.7 -63.6503L1726.09 -56.3228C1647.76 46.07 1573.78 142.785 1474.94 202.978C1419.13 237.083 1356.96 263.592 1290.22 281.777C1250.07 292.71 1206.27 301.227 1156.42 307.864C1122.17 312.429 1087.73 315.767 1061.59 318.184C1046.89 319.527 1032.16 320.831 1017.48 322.135C920.584 330.691 820.39 339.514 726.765 362.417C703.631 368.095 681.002 374.54 659.49 381.523C554.458 416.318 460.46 471.294 380.076 544.914C278.42 638.291 203.009 762.436 155.917 913.82L158.337 915.392H158.391Z" fill="#62C8A1"/>
<path d="M132.437 912.745C179.662 761.746 256.961 638.79 362.207 547.331C444.504 475.974 540.949 423.838 648.88 392.303C670.764 386.011 693.845 380.295 717.43 375.308C807.28 356.394 902.501 349.642 994.611 343.082C1015.11 341.624 1035.64 340.166 1056.19 338.594C1094.62 335.601 1124.13 332.724 1151.89 329.348C1201.99 323.21 1246.18 315 1287.05 304.258C1354.67 286.457 1417.56 260.255 1473.99 226.303C1572.96 166.954 1646.9 71.3516 1725.19 -29.8904L1734.04 -41.3228L1732.26 -44.1617L1723.41 -32.7292C1645.28 68.2825 1571.52 163.693 1472.95 222.773C1416.71 256.61 1353.98 282.736 1286.55 300.498C1245.79 311.24 1201.65 319.412 1151.66 325.55C1123.92 328.926 1094.43 331.803 1056.04 334.795C1035.51 336.368 1014.98 337.826 994.478 339.284C902.315 345.844 807.014 352.596 717.058 371.548C693.419 376.535 670.312 382.251 648.375 388.581C540.151 420.193 443.414 472.521 360.85 544.108C255.126 635.989 177.455 759.482 130.017 911.249L132.437 912.822V912.745Z" fill="#62C8A1"/>
<path d="M106.485 910.06C154.083 758.677 233.615 636.335 342.876 546.487C426.211 478.084 528.133 427.175 637.633 399.285C659.889 393.684 683.448 388.658 707.593 384.362C793.853 369.054 884.447 364.221 972.036 359.54C997.749 358.159 1024.34 356.74 1050.53 355.09C1088.08 352.673 1118.71 350.103 1147 346.918C1197.15 341.279 1241.72 333.414 1283.23 322.864C1351.51 305.524 1414.96 279.667 1471.83 246.022C1570.59 187.709 1644.38 93.2957 1722.5 -6.64188L1734.42 -21.8723L1732.66 -24.7496L1720.75 -9.51916C1642.81 90.2266 1569.18 184.448 1470.85 242.492C1414.16 276.022 1350.9 301.803 1282.8 319.105C1241.37 329.655 1196.89 337.481 1146.82 343.12C1118.55 346.305 1087.92 348.875 1050.43 351.292C1024.26 352.942 997.669 354.361 971.956 355.742C884.314 360.422 793.666 365.256 707.274 380.602C683.076 384.899 659.49 389.924 637.181 395.525C527.388 423.493 425.174 474.555 341.573 543.187C231.807 633.457 151.902 756.375 104.066 908.525L106.485 910.098V910.06Z" fill="#62C8A1"/>
<path d="M80.5042 907.375C128.5 755.492 210.266 633.802 323.516 545.604C409.084 479.081 513.825 430.897 626.383 406.229C649.011 401.318 673.023 397.021 697.752 393.415C780.529 381.369 866.682 378.338 950.017 375.384C981.101 374.31 1013.22 373.159 1044.87 371.586C1082.17 369.706 1113.1 367.443 1142.13 364.489C1192.39 359.348 1237.3 351.829 1279.45 341.509C1348.4 324.591 1412.43 299.079 1469.7 265.741C1568.33 208.425 1641.98 115.086 1719.97 16.2997L1734.81 -2.46024L1733.06 -5.33752L1718.22 13.4224C1640.42 112.017 1566.89 205.126 1468.69 262.173C1411.58 295.434 1347.76 320.831 1278.97 337.711C1236.9 348.031 1192.07 355.55 1141.92 360.653C1112.91 363.607 1082.04 365.87 1044.76 367.75C1013.12 369.323 980.995 370.474 949.937 371.548C866.549 374.464 780.342 377.533 697.46 389.579C672.704 393.185 648.639 397.52 625.957 402.431C513.107 427.175 408.074 475.514 322.24 542.228C208.458 630.81 126.32 753.114 78.0579 905.763L80.4776 907.336L80.5042 907.375Z" fill="#62C8A1"/>
<path d="M54.552 904.689C102.974 752.27 186.947 631.194 304.185 544.76C392.013 480.079 499.546 434.58 615.135 413.211C638.482 408.914 662.307 405.423 687.914 402.469C767.233 393.339 849.186 391.996 928.452 390.691C964.748 390.078 1002.27 389.464 1039.23 388.121C1075.9 386.778 1107.97 384.784 1137.29 382.098C1187.63 377.456 1232.89 370.282 1275.7 360.154C1346.32 343.427 1409.1 319.028 1467.63 285.498C1566.17 229.103 1639.75 136.8 1717.63 39.0878C1723.48 31.7603 1729.36 24.3944 1735.26 16.9902L1733.54 14.0745C1727.63 21.4404 1721.76 28.8446 1715.91 36.1721C1638.18 133.693 1564.77 225.766 1466.65 281.93C1408.31 315.345 1345.69 339.706 1275.27 356.394C1232.57 366.522 1187.39 373.658 1137.14 378.3C1107.86 380.985 1075.82 382.942 1039.18 384.323C1002.24 385.666 964.722 386.318 928.426 386.894C849.133 388.198 767.154 389.579 687.727 398.71C662.068 401.664 638.216 405.193 614.816 409.451C498.934 430.858 391.083 476.511 302.988 541.384C185.218 628.201 100.82 749.93 52.1591 903.116L54.5786 904.727L54.552 904.689Z" fill="#62C8A1"/>
<path d="M28.6021 902.042C77.449 749.047 163.682 628.547 284.856 543.955C374.998 481.038 485.322 438.263 603.916 420.232C627.662 416.625 651.939 413.825 678.104 411.561C754.153 405.078 832.143 405.27 907.581 405.423C948.876 405.538 991.581 405.615 1033.59 404.617C1070.1 403.735 1102.44 402.124 1132.43 399.669C1182.85 395.525 1228.48 388.696 1271.9 378.76C1343.19 362.494 1406.53 338.402 1465.5 305.179C1564 249.666 1637.52 158.322 1715.35 61.5688C1722.08 53.2055 1728.83 44.8038 1735.67 36.3638L1733.94 33.4482C1727.13 41.8883 1720.35 50.29 1713.62 58.6533C1635.95 155.176 1562.61 246.329 1464.52 301.611C1405.73 334.757 1342.58 358.734 1271.47 374.962C1228.13 384.86 1182.58 391.689 1132.27 395.832C1102.3 398.287 1070 399.899 1033.54 400.781C991.554 401.779 948.849 401.663 907.554 401.587C832.09 401.395 754.047 401.241 677.918 407.725C651.7 409.95 627.396 412.789 603.597 416.395C484.711 434.465 374.067 477.355 283.659 540.464C161.901 625.478 75.2685 746.592 26.1556 900.431L28.5755 902.042H28.6021Z" fill="#62C8A1"/>
<path d="M2.64911 899.356C49.874 752.193 133.182 635.836 250.234 553.507C345.721 486.371 464.129 442.674 592.695 427.175C690.575 415.398 790.529 417.546 887.212 419.618C966.053 421.306 1047.58 423.07 1127.62 417.278C1258.74 407.763 1368.58 377.571 1463.43 324.936C1561.92 270.268 1635.42 179.768 1713.25 83.9733C1720.83 74.6509 1728.46 65.2518 1736.14 55.8527L1734.42 52.937C1726.73 62.3361 1719.1 71.7353 1711.52 81.0577C1633.88 176.66 1560.57 266.93 1462.47 321.368C1367.89 373.85 1258.31 403.965 1127.48 413.441C1047.53 419.234 966.053 417.469 887.239 415.781C790.502 413.71 690.495 411.523 592.455 423.339C463.597 438.876 344.844 482.688 249.064 550.055C131.454 632.767 47.72 749.738 0.229187 897.745L2.64911 899.356Z" fill="url(#paint2_linear_29_1023)"/>
</g>
<defs>
<linearGradient id="paint0_linear_29_1023" x1="1722.5" y1="208.157" x2="830.84" y2="208.157" gradientUnits="userSpaceOnUse">
<stop stop-color="#62C8A1"/>
<stop offset="0.58" stop-color="#62C8A1"/>
<stop offset="0.63" stop-color="#62C8A1"/>
<stop offset="0.71" stop-color="#62C8A1"/>
<stop offset="0.78" stop-color="#62C8A1"/>
<stop offset="0.85" stop-color="#62C8A1"/>
<stop offset="0.89" stop-color="#62C8A1"/>
<stop offset="1" stop-color="#62C8A1"/>
</linearGradient>
<linearGradient id="paint1_linear_29_1023" x1="1724.63" y1="250.012" x2="701.05" y2="250.012" gradientUnits="userSpaceOnUse">
<stop stop-color="#62C8A1"/>
<stop offset="0.58" stop-color="#62C8A1"/>
<stop offset="0.63" stop-color="#62C8A1"/>
<stop offset="0.71" stop-color="#62C8A1"/>
<stop offset="0.78" stop-color="#62C8A1"/>
<stop offset="0.85" stop-color="#62C8A1"/>
<stop offset="0.89" stop-color="#62C8A1"/>
<stop offset="1" stop-color="#62C8A1"/>
</linearGradient>
<linearGradient id="paint2_linear_29_1023" x1="1736.12" y1="476.128" x2="0.229206" y2="476.128" gradientUnits="userSpaceOnUse">
<stop stop-color="#62C8A1"/>
<stop offset="0.58" stop-color="#62C8A1"/>
<stop offset="0.63" stop-color="#62C8A1"/>
<stop offset="0.71" stop-color="#62C8A1"/>
<stop offset="0.78" stop-color="#62C8A1"/>
<stop offset="0.85" stop-color="#62C8A1"/>
<stop offset="0.89" stop-color="#62C8A1"/>
<stop offset="1" stop-color="#62C8A1"/>
</linearGradient>
</defs>
</svg>
