<svg width="190" height="40" viewBox="0 0 190 40" fill="none" xmlns="http://www.w3.org/2000/svg">
<g clip-path="url(#clip0_148_887)">
<path d="M54.9304 11.5529H50.5686V33.435H54.9304V11.5529Z" fill="#62C8A1"/>
<path d="M108.902 9.97119H104.541V33.435H108.902V9.97119Z" fill="#62C8A1"/>
<path d="M82.3623 12.6886L78.0005 14.0891V17.3186H75.0601V20.3322H78.0005V33.435H82.3623V20.3322H86.0169V17.3186H82.3623V12.6886Z" fill="#62C8A1"/>
<path d="M67.9252 16.9667C65.281 16.9807 63.647 18.1513 62.6611 19.3776V17.3151H58.2993V33.4315H62.6611V24.4501C62.9886 22.6176 63.8979 20.1754 66.4306 20.0569C68.9773 20.0569 69.1063 22.5932 69.1063 23.06V33.4315H73.374V22.9207C73.374 22.9207 73.4994 16.9319 67.9287 16.9633L67.9252 16.9667Z" fill="#62C8A1"/>
<path d="M89.9954 18.3708C86.3653 21.1404 85.6963 29.2648 90.2184 32.5118C94.7404 35.7587 100.921 32.5118 100.921 32.5118V29.23C91.8105 34.3582 90.9848 26.6171 90.9848 26.6171H102.196C102.45 15.852 93.6291 15.5976 89.9989 18.3673L89.9954 18.3708ZM91.0894 23.6941C91.0894 21.5829 92.671 19.8723 94.6255 19.8723C96.5799 19.8723 98.1616 21.5829 98.1616 23.6941H91.0894Z" fill="#62C8A1"/>
<path d="M114.201 18.3708C110.571 21.1404 109.902 29.2648 114.424 32.5118C118.946 35.7587 125.127 32.5118 125.127 32.5118V29.23C116.016 34.3582 115.191 26.6171 115.191 26.6171H126.402C126.656 15.852 117.835 15.5976 114.205 18.3673L114.201 18.3708ZM115.295 23.6941C115.295 21.5829 116.877 19.8723 118.831 19.8723C120.786 19.8723 122.367 21.5829 122.367 23.6941H115.295Z" fill="#62C8A1"/>
<path d="M148.364 18.3708C144.734 21.1404 144.065 29.2648 148.587 32.5118C153.109 35.7587 159.289 32.5118 159.289 32.5118V29.23C150.179 34.3582 149.353 26.6171 149.353 26.6171H160.565C160.819 15.852 151.998 15.5976 148.368 18.3673L148.364 18.3708ZM149.458 23.6941C149.458 21.5829 151.04 19.8723 152.994 19.8723C154.949 19.8723 156.53 21.5829 156.53 23.6941H149.458Z" fill="#62C8A1"/>
<path d="M165.118 18.3708C161.488 21.1404 160.819 29.2648 165.341 32.5118C169.863 35.7587 176.043 32.5118 176.043 32.5118V29.23C166.933 34.3582 166.107 26.6171 166.107 26.6171H177.318C177.573 15.852 168.752 15.5976 165.121 18.3673L165.118 18.3708ZM166.212 23.6941C166.212 21.5829 167.794 19.8723 169.748 19.8723C171.702 19.8723 173.284 21.5829 173.284 23.6941H166.212Z" fill="#62C8A1"/>
<path d="M135.86 11.5528H129.471V33.4349H133.833V25.0597H136.244C138.188 25.0597 143.919 24.8368 144.048 17.9875C144.176 11.1382 135.864 11.5528 135.864 11.5528H135.86ZM139.522 18.4439C139.522 20.1092 138.16 21.4714 136.495 21.4714H133.829V15.0367H136.495C138.16 15.0367 139.522 16.3989 139.522 18.0641V18.4474V18.4439Z" fill="#62C8A1"/>
<path d="M183.941 19.8618V17.3151H179.579V33.4315H183.941V24.8159C184.819 19.6946 189.272 21.2449 189.272 21.2449V17.0399C186.171 16.5731 184.614 18.5693 183.941 19.8618Z" fill="#62C8A1"/>
<path d="M21.6526 0.446289C10.0966 0.446289 0.728516 6.75208 0.728516 14.5315C0.728516 19.3358 4.29947 23.5756 9.75171 26.1154L10.4345 22.9625C7.04127 20.9941 4.88128 18.0119 4.88128 14.6779C4.88128 8.74833 11.7236 3.9406 20.1615 3.9406C28.5994 3.9406 35.4417 8.74833 35.4417 14.6779C35.4417 20.6074 28.5994 25.4151 20.1615 25.4151C18.3673 25.4151 16.6428 25.1956 15.0437 24.7985L11.8734 39.9916L21.2694 28.6063C21.3983 28.6063 21.5237 28.6063 21.6526 28.6063C33.2085 28.6063 42.5766 22.3005 42.5766 14.5211C42.5766 6.74162 33.2051 0.446289 21.6526 0.446289Z" fill="#62C8A1"/>
<path d="M20.9627 22.1577C23.6622 22.1577 25.8506 19.9693 25.8506 17.2698C25.8506 14.5703 23.6622 12.382 20.9627 12.382C18.2633 12.382 16.0749 14.5703 16.0749 17.2698C16.0749 19.9693 18.2633 22.1577 20.9627 22.1577Z" fill="#62C8A1"/>
</g>
<defs>
<clipPath id="clip0_148_887">
<rect width="188.543" height="39.5488" fill="white" transform="translate(0.728516 0.446289)"/>
</clipPath>
</defs>
</svg>
