<svg width="184" height="33" viewBox="0 0 184 33" fill="none" xmlns="http://www.w3.org/2000/svg">
<path d="M36.098 14.0142L28.9561 1.91821C28.2523 0.726728 26.9703 -0.00488281 25.5872 -0.00488281H11.1535C9.77044 -0.00488281 8.48838 0.726728 7.78464 1.91821L0.642725 14.0142C-0.0819175 15.2405 -0.0819175 16.7664 0.642725 17.9927L7.78464 30.0887C8.48838 31.2802 9.77044 32.0118 11.1535 32.0118H25.5872C26.9703 32.0118 28.2523 31.2802 28.9561 30.0887L36.098 17.9927C36.8226 16.7664 36.8226 15.2405 36.098 14.0142ZM23.5665 12.0075H20.7028V19.9193H23.5665V24.7932H13.425V19.9193H16.3584V12.0075H13.425V7.13355H23.5665V12.0075Z" fill="#62C8A1"/>
<path d="M148.919 21.0376L140.45 7.64917H138.168V25.5597H140.659V12.3768L149.104 25.5597H151.41V7.64917H148.919V21.0376Z" fill="#62C8A1"/>
<path d="M180.919 25.5075H183.901L179.769 17.6618C180.082 17.5643 180.382 17.4389 180.664 17.2821C181.448 16.8536 182.058 16.2474 182.493 15.4635C182.929 14.6797 183.148 13.7738 183.148 12.7461C183.148 11.7184 182.932 10.8126 182.5 10.0287C182.068 9.24483 181.462 8.63864 180.675 8.21012C179.891 7.78161 178.978 7.56909 177.943 7.56909H170.829V25.5075H173.345V17.9266H177.09L180.915 25.5075H180.919ZM173.348 9.9625H178.044C178.529 9.9625 178.954 10.0775 179.32 10.3074C179.685 10.5373 179.968 10.8648 180.17 11.2864C180.372 11.7114 180.473 12.1957 180.473 12.7461C180.473 13.2966 180.372 13.7843 180.17 14.2058C179.968 14.6309 179.682 14.9549 179.313 15.1848C178.943 15.4147 178.518 15.5297 178.044 15.5297H173.348V9.95902V9.9625Z" fill="#62C8A1"/>
<path d="M156.984 7.64917H155.765V25.5736H156.984H158.28H167.279V23.1802H158.28V17.8673H165.924V15.4774H158.28V10.0391H167.279V7.64917H158.28H156.984Z" fill="#62C8A1"/>
<path d="M50.1623 7.36694H46.2709V25.8105H50.1623V7.36694Z" fill="#62C8A1"/>
<path d="M62.4463 17.4353L57.9661 7.36694H54.4927V25.8105H58.3249V17.174L61.1259 23.4589H63.7702L66.5642 17.0312V25.8105H70.3965V7.36694H66.9231L62.4463 17.4353Z" fill="#62C8A1"/>
<path d="M86.9136 10.2341C86.4223 9.32481 85.7221 8.61062 84.8302 8.11242C83.9523 7.61772 82.928 7.37036 81.7923 7.37036H74.4797V25.8139H78.3711V19.2468H81.7923C82.928 19.2468 83.9488 18.9995 84.8267 18.5117C85.7186 18.017 86.4223 17.3063 86.9136 16.4005C87.3943 15.5121 87.6382 14.4774 87.6382 13.3208C87.6382 12.1642 87.3943 11.1294 86.9136 10.2376V10.2341ZM83.4436 14.5123C83.2938 14.8258 83.0918 15.0558 82.8235 15.223C82.5553 15.3902 82.2452 15.4703 81.8724 15.4703H78.3711V11.1434H81.8724C82.2417 11.1434 82.5518 11.2235 82.82 11.3942C83.0883 11.5614 83.2904 11.7983 83.4436 12.1119C83.6074 12.4498 83.6875 12.854 83.6875 13.3208C83.6875 13.7876 83.6039 14.1778 83.4436 14.5158V14.5123Z" fill="#62C8A1"/>
<path d="M93.9509 7.36694L87.1539 25.8105H91.345L92.62 22.0967H98.3684L99.6435 25.8105H103.835L97.0376 7.36694H93.9544H93.9509ZM97.2222 18.3202H93.6966L95.4907 12.4081L97.2187 18.3202H97.2222Z" fill="#62C8A1"/>
<path d="M116.523 17.9509C117.39 17.4805 118.07 16.8012 118.55 15.9372C119.024 15.0871 119.261 14.0977 119.261 13.0038C119.261 11.9099 119.024 10.9239 118.557 10.0704C118.08 9.20289 117.401 8.52354 116.533 8.05322C115.683 7.58986 114.694 7.35645 113.593 7.35645H106.117V25.8105H110.008V18.6511H112.318L115.931 25.8105H120.47L116.373 18.031C116.422 18.0066 116.474 17.9787 116.523 17.9543V17.9509ZM115.223 13.0003C115.223 13.4044 115.154 13.7598 115.011 14.0524C114.882 14.3207 114.711 14.5193 114.485 14.6586C114.255 14.8015 113.994 14.8711 113.687 14.8711H110.012V11.126H113.687C114.001 11.126 114.265 11.1957 114.488 11.335C114.711 11.4744 114.882 11.6764 115.011 11.9447C115.15 12.2408 115.223 12.5962 115.223 12.9968V13.0003Z" fill="#62C8A1"/>
<path d="M121.4 7.3252V11.1017H126.184V25.7688H130.075V11.1017H134.862V7.3252H121.4Z" fill="#62C8A1"/>
</svg>
