<svg width="358" height="676" viewBox="0 0 358 676" fill="none" xmlns="http://www.w3.org/2000/svg">
<g opacity="0.1">
<path d="M177.166 676C182.463 632.597 183.752 585.556 185.002 540.063C185.392 525.891 185.798 511.226 186.313 496.923C188.605 433.522 192.109 361.101 204.673 304.102C216.814 249.029 236.205 216.588 250.342 199.075C256.429 191.537 262.774 185.035 268.91 178.748C274.932 172.576 281.156 166.206 287.144 158.832C314.124 125.634 337.623 71.0548 355.105 0.987543L354.666 0C337.25 69.8204 313.828 124.218 286.941 157.302C280.969 164.659 274.751 171.012 268.735 177.184C262.593 183.472 256.237 189.99 250.134 197.545C235.931 215.14 216.436 247.762 204.218 303.18C191.589 360.492 188.073 433.127 185.77 496.725C185.249 511.045 184.849 525.727 184.46 539.914C183.209 585.309 181.921 632.235 176.651 675.424L177.166 675.984V676Z" fill="#62C8A1"/>
<path d="M171.808 674.848C177.073 632.152 178.789 586.56 180.451 542.482C181.021 527.373 181.608 511.753 182.332 496.577C186.631 406.232 191.627 367.635 196.387 339.374C198.268 328.215 200.373 317.665 202.649 308.019C215.245 254.576 234.905 223.139 249.179 206.169C253.956 200.491 258.77 195.504 264.528 189.776L267.55 186.78C273.763 180.624 280.19 174.255 286.37 166.832C296.581 154.586 306.43 139.081 315.649 120.762C330.702 90.8554 344.011 53.3611 355.192 9.33246L354.759 8.32845C343.611 52.209 330.351 89.5716 315.347 119.379C306.162 137.649 296.346 153.088 286.168 165.301C279.998 172.691 273.582 179.061 267.375 185.2L264.353 188.196C258.589 193.94 253.769 198.927 248.976 204.622C234.636 221.674 214.878 253.276 202.205 307.048C199.913 316.776 197.79 327.392 195.898 338.617C187.815 386.646 184.339 442.805 181.794 496.33C181.07 511.539 180.483 527.175 179.913 542.285C178.257 586.28 176.541 631.758 171.304 674.272L171.819 674.848H171.808Z" fill="url(#paint0_linear_148_1277)"/>
<path d="M166.456 673.712C171.66 631.922 173.766 587.926 175.806 545.395C176.585 529.2 177.385 512.46 178.345 496.232C181.438 444.088 185.485 389.361 194.067 342.386C196.058 331.54 198.262 321.286 200.62 311.92C210.952 270.92 227.337 236.8 248.011 213.247C253.309 207.206 258.793 201.857 263.52 197.314L266.103 194.845C272.535 188.689 279.187 182.32 285.587 174.831C295.935 162.75 305.899 147.393 315.21 129.222C330.219 99.9737 343.699 62.4301 355.275 17.6773L354.842 16.6732C343.304 61.2944 329.868 98.7064 314.909 127.856C305.63 145.961 295.699 161.252 285.384 173.3C279.001 180.756 272.354 187.126 265.933 193.282L263.35 195.75C258.617 200.31 253.117 205.659 247.814 211.716C227.047 235.384 210.573 269.686 200.182 310.933C197.807 320.364 195.586 330.684 193.585 341.596C184.964 388.785 180.906 443.66 177.802 495.952C176.842 512.197 176.036 528.953 175.263 545.165C173.229 587.614 171.123 631.511 165.941 673.136L166.456 673.712Z" fill="#62C8A1"/>
<path d="M161.104 672.56C166.215 631.889 168.671 589.687 171.051 548.868C172.071 531.389 173.124 513.3 174.363 495.886C177.994 445.027 182.617 391.583 191.753 345.398C193.847 334.865 196.151 324.923 198.596 315.821C209.279 276.138 225.966 243.12 246.849 220.341C252.119 214.58 257.482 209.543 262.521 204.869L264.638 202.91C271.295 196.755 278.183 190.385 284.813 182.83C295.298 170.897 305.377 155.705 314.777 137.699C329.742 109.076 343.397 71.5157 355.362 26.0222L354.929 25.0017C342.996 70.3471 329.385 107.792 314.475 136.316C305.109 154.273 295.057 169.399 284.61 181.299C277.997 188.821 271.12 195.191 264.468 201.347L262.351 203.305C257.306 207.98 251.938 213.033 246.657 218.81C225.681 241.688 208.912 274.887 198.163 314.801C195.701 323.952 193.381 333.976 191.27 344.576C182.096 390.958 177.456 444.549 173.815 495.557C172.576 513.004 171.523 531.109 170.503 548.605C168.128 589.342 165.677 631.478 160.583 672L161.098 672.577L161.104 672.56Z" fill="#62C8A1"/>
<path d="M155.752 671.408C160.731 632.136 163.489 591.909 166.16 552.983C167.459 533.989 168.809 514.337 170.377 495.524C174.336 448.335 179.694 393.937 189.433 348.411C191.632 338.189 194.034 328.544 196.568 319.722C207.76 280.812 224.283 249.753 245.681 227.418C250.912 221.937 256.155 217.197 261.518 212.407L263.185 210.91C270.062 204.77 277.18 198.417 284.029 190.813C294.646 179.044 304.846 164.017 314.338 146.142C329.254 118.145 343.084 80.5354 355.45 34.3341L355.022 33.2972C342.695 79.3503 328.909 116.845 314.047 144.727C304.588 162.536 294.421 177.514 283.837 189.249C277.004 196.82 269.897 203.174 263.026 209.313L261.359 210.811C255.99 215.617 250.742 220.374 245.5 225.855C224.009 248.289 207.404 279.495 196.151 318.636C193.601 327.507 191.182 337.218 188.967 347.505C179.184 393.246 173.804 447.792 169.839 495.112C168.266 513.958 166.922 533.627 165.617 552.638C162.952 591.481 160.199 631.659 155.236 670.799L155.746 671.391L155.752 671.408Z" fill="#62C8A1"/>
<path d="M150.394 670.272C155.198 632.712 158.197 594.691 161.093 557.921C162.804 536.178 164.421 515.637 166.39 495.195C170.832 449.24 176.771 396.241 187.119 351.439C189.422 341.531 191.923 332.182 194.544 323.639C206.082 286.079 222.901 256.09 244.524 234.529C249.711 229.344 255.053 224.686 260.52 219.979L261.639 219.008C268.773 212.868 276.149 206.515 283.256 198.828C294.015 187.208 304.325 172.345 313.91 154.635C328.771 127.247 342.783 89.588 355.543 42.7119L355.121 41.675C342.399 88.4194 328.437 125.963 313.625 153.236C304.072 170.897 293.796 185.71 283.075 197.281C275.984 204.935 268.614 211.288 261.491 217.427L260.372 218.382C254.893 223.106 249.547 227.764 244.354 232.965C222.643 254.625 205.748 284.762 194.144 322.536C191.506 331.128 188.989 340.543 186.669 350.501C176.277 395.501 170.322 448.664 165.864 494.75C163.895 515.226 162.277 535.783 160.561 557.559C157.671 594.279 154.677 632.251 149.884 669.696L150.394 670.289V670.272Z" fill="#62C8A1"/>
<path d="M145.041 669.12C149.62 633.667 152.774 598.147 155.823 563.797C157.95 539.816 159.963 517.168 162.403 494.849C167.339 449.948 173.853 398.167 184.799 354.451C187.163 345.003 189.762 335.951 192.52 327.54C204.404 291.33 221.508 262.427 243.361 241.606C248.483 236.718 253.5 232.504 259.522 227.5L260.059 227.056C267.457 220.917 275.107 214.58 282.477 206.828C293.373 195.372 303.803 180.657 313.471 163.095C328.492 135.921 342.283 99.2825 355.625 51.0403L355.203 49.9869C341.899 98.081 328.157 134.604 313.186 161.68C303.546 179.176 293.154 193.841 282.29 205.264C274.937 213 267.292 219.337 259.905 225.459L259.368 225.904C253.341 230.908 248.318 235.121 243.185 240.026C221.245 260.929 204.064 289.98 192.12 326.371C189.345 334.832 186.735 343.934 184.355 353.447C173.365 397.344 166.823 449.306 161.877 494.322C159.431 516.69 157.418 539.371 155.291 563.369C152.247 597.67 149.094 633.156 144.531 668.511L145.041 669.103V669.12Z" fill="url(#paint1_linear_148_1277)"/>
<path d="M139.689 667.968C143.972 635.099 147.186 602.443 150.301 570.858C152.927 544.21 155.406 519.044 158.417 494.503C163.495 453.404 170.816 400.669 182.48 357.463C184.936 348.361 187.634 339.605 190.486 331.457C202.704 296.613 220.099 268.764 242.193 248.7C247.594 243.779 253.144 239.351 258.518 235.055C266.163 228.949 274.07 222.629 281.698 214.827C292.732 203.536 303.277 188.969 313.038 171.555C328.004 144.974 341.965 108.286 355.713 59.3688L355.297 58.3153C341.587 107.084 327.675 143.657 312.759 170.14C303.025 187.504 292.518 202.005 281.523 213.263C273.906 221.065 266.009 227.369 258.376 233.459C253.002 237.755 247.441 242.182 242.034 247.104C219.857 267.25 202.391 295.214 190.108 330.239C187.234 338.436 184.525 347.242 182.052 356.41C170.338 399.813 162.99 452.697 157.901 493.911C154.885 518.501 152.401 543.7 149.774 570.364C146.665 601.917 143.451 634.539 139.179 667.342L139.689 667.935V667.968Z" fill="#62C8A1"/>
<path d="M134.337 666.832C138.241 637.107 141.406 607.76 144.46 579.4C147.679 549.527 150.717 521.316 154.43 494.174C159.924 454.244 167.81 402.957 180.16 360.492C182.715 351.702 185.506 343.259 188.457 335.375C200.998 301.913 218.684 275.134 241.025 255.81C246.3 251.235 251.74 247.054 257.004 243.022L257.509 242.627C264.77 237.047 273.001 230.726 280.914 222.842C292.084 211.716 302.745 197.314 312.599 180.048C327.51 154.043 341.642 117.305 355.795 67.7465L355.379 66.6766C341.263 116.104 327.181 152.709 312.32 178.633C302.498 195.833 291.876 210.185 280.738 221.295C272.842 229.163 264.621 235.483 257.366 241.046L256.862 241.441C251.597 245.49 246.147 249.655 240.866 254.247C218.448 273.636 200.686 300.53 188.084 334.173C185.117 342.107 182.304 350.616 179.738 359.438C167.339 402.084 159.42 453.52 153.914 493.582C150.196 520.789 147.153 549.033 143.928 578.923C140.874 607.266 137.715 636.596 133.816 666.273L134.326 666.882L134.337 666.832Z" fill="#62C8A1"/>
<path d="M128.979 665.68C132.401 639.839 135.362 614.409 138.22 589.803C142.151 555.979 145.869 524.031 150.437 493.812C159.195 436.221 167.646 396.027 177.84 363.487C180.489 355.027 183.379 346.88 186.433 339.259C199.287 307.164 217.269 281.471 239.868 262.872C244.951 258.674 250.188 254.806 255.255 251.087L256.516 250.165C264.962 243.927 272.573 238.183 280.146 230.825C291.454 219.863 302.23 205.61 312.172 188.492C327.23 162.7 341.126 126.967 355.889 76.0584L355.477 74.9721C340.753 125.733 326.907 161.351 311.897 187.06C301.983 204.128 291.245 218.316 279.976 229.245C272.419 236.57 264.819 242.33 256.385 248.552L255.124 249.474C250.056 253.21 244.814 257.078 239.725 261.275C217.049 279.94 199.002 305.748 186.088 337.975C183.017 345.645 180.11 353.842 177.445 362.352C167.212 395.023 158.729 435.349 149.944 493.121C145.365 523.422 141.647 555.403 137.71 589.26C134.852 613.833 131.897 639.247 128.475 665.071L128.985 665.68H128.979Z" fill="#62C8A1"/>
<path d="M123.627 664.528C126.44 643.46 129.012 622.721 131.497 602.657C136.295 563.945 140.83 527.372 146.451 493.466C155.658 438.344 164.893 398.002 175.521 366.499C178.257 358.385 181.246 350.517 184.404 343.16C197.752 312.019 215.509 288.087 238.7 269.965C243.635 266.098 248.713 262.509 253.621 259.037L255.508 257.703C263.629 251.959 271.564 246.182 279.362 238.825C290.807 228.027 301.698 213.938 311.733 196.968C326.737 171.72 340.797 135.954 355.977 84.4198L355.565 83.3335C340.43 134.736 326.413 170.387 311.464 195.537C301.462 212.457 290.604 226.496 279.198 237.261C271.422 244.602 263.492 250.362 255.381 256.107L253.495 257.44C248.582 260.913 243.498 264.501 238.557 268.369C215.295 286.54 197.467 310.587 184.064 341.86C180.889 349.266 177.89 357.167 175.131 365.331C164.46 396.949 155.192 437.439 145.957 492.726C140.32 526.714 135.779 563.32 130.976 602.081C128.491 622.129 125.925 642.851 123.112 663.902L123.622 664.511L123.627 664.528Z" fill="#62C8A1"/>
<path d="M118.275 663.392C120.31 648.266 122.256 633.305 124.143 618.837C129.994 573.903 135.516 531.471 142.47 493.137C152.225 439.694 161.992 400.422 173.207 369.528C176.042 361.726 179.129 354.171 182.381 347.077C196.019 317.352 214.066 294.457 237.543 277.059C242.281 273.537 247.156 270.245 251.866 267.052L254.515 265.258C262.291 259.975 270.55 254.214 278.589 246.824C290.176 236.191 301.182 222.266 311.305 205.429C326.457 180.378 340.26 145.632 356.07 92.7482L355.664 91.6454C339.898 144.381 326.139 179.028 311.042 203.98C300.952 220.752 289.979 234.627 278.435 245.244C270.413 252.617 262.165 258.378 254.4 263.645L251.751 265.439C247.035 268.632 242.16 271.924 237.417 275.446C213.869 292.893 195.761 315.887 182.063 345.728C178.795 352.855 175.691 360.459 172.839 368.293C161.575 399.303 151.776 438.706 141.993 492.314C135.023 530.747 129.495 573.228 123.638 618.211C121.757 632.679 119.811 647.641 117.776 662.75L118.286 663.376L118.275 663.392Z" fill="#62C8A1"/>
<path d="M112.923 662.24C113.965 654.57 114.985 646.982 115.994 639.477C123.123 586.527 129.851 536.507 138.477 492.775C148.617 441.685 159.217 402.348 170.881 372.54C173.804 365.067 176.99 357.809 180.346 350.978C194.264 322.685 212.591 300.827 236.369 284.153C240.871 280.977 245.5 277.998 249.969 275.101L253.506 272.813C260.92 267.99 269.524 262.23 277.805 254.839C289.524 244.371 300.65 230.611 310.861 213.922C330.197 182.501 345.217 137.139 356.146 101.109L355.741 100.007C344.844 135.921 329.868 181.168 310.598 212.473C300.414 229.113 289.332 242.824 277.646 253.259C269.387 260.633 260.794 266.394 253.385 271.216L249.848 273.504C245.373 276.401 240.745 279.38 236.237 282.557C212.394 299.279 194.006 321.22 180.028 349.628C176.656 356.492 173.453 363.784 170.514 371.305C158.8 401.245 148.162 440.714 137.989 491.969C129.341 535.816 122.602 585.885 115.467 638.901C114.458 646.406 113.438 653.994 112.396 661.648L112.906 662.273L112.923 662.24Z" fill="#62C8A1"/>
<path d="M107.565 661.088C115.511 602.937 123.726 542.811 134.485 492.429C145.129 442.936 156.272 404.701 168.562 375.552C171.578 368.392 174.857 361.446 178.317 354.879C192.498 328.017 211.105 307.196 235.206 291.231C239.489 288.383 243.882 285.668 248.137 283.051C249.59 282.162 251.049 281.257 252.508 280.351C261.699 274.623 269.387 269.455 277.032 262.822C288.893 252.519 300.129 238.907 310.433 222.365C329.583 191.8 344.334 148.117 356.24 109.438L355.839 108.319C343.967 146.899 329.254 190.467 310.176 220.917C299.905 237.409 288.707 250.971 276.878 261.242C269.25 267.859 261.578 273.027 252.398 278.738C250.94 279.644 249.486 280.532 248.028 281.438C243.778 284.055 239.38 286.77 235.091 289.618C210.93 305.616 192.263 326.503 178.027 353.48C174.55 360.08 171.254 367.059 168.222 374.252C155.889 403.516 144.702 441.883 134.025 491.541C123.232 542.054 115.012 602.246 107.055 660.462L107.565 661.088Z" fill="#62C8A1"/>
<path d="M102.213 659.936C111.475 592.634 119.832 538.318 130.498 492.067C141.625 444.121 153.316 406.989 166.242 378.547C169.351 371.7 172.729 365.051 176.293 358.763C190.913 332.988 209.268 313.78 234.049 298.308C238.063 295.79 242.176 293.387 246.152 291.05C247.934 289.996 249.722 288.96 251.509 287.89C259.45 283.166 267.939 277.833 276.258 270.805C288.257 260.682 299.608 247.219 310 230.809C329.067 200.886 344.12 156.857 356.327 117.75L355.927 116.631C343.747 155.639 328.738 199.553 309.742 229.36C299.383 245.721 288.065 259.119 276.104 269.225C267.807 276.236 259.329 281.553 251.4 286.277C249.612 287.33 247.824 288.383 246.042 289.437C242.061 291.774 237.948 294.177 233.934 296.695C209.092 312.2 190.688 331.474 176.014 357.348C172.438 363.652 169.044 370.351 165.918 377.214C152.943 405.771 141.213 443.035 130.048 491.129C119.349 537.495 110.981 591.893 101.703 659.31L102.207 659.936H102.213Z" fill="#62C8A1"/>
<path d="M96.8602 658.8C107.34 583.186 116.207 533.232 126.511 491.738C138.11 445.306 150.349 409.277 163.922 381.576C167.124 375.042 170.601 368.688 174.264 362.681C189.109 338.37 207.738 320.166 232.881 305.419C236.615 303.213 240.443 301.09 244.139 299.033C246.256 297.848 248.378 296.679 250.5 295.461C258.424 290.968 266.935 285.832 275.468 278.837C287.604 268.879 299.076 255.58 309.556 239.318C328.497 210.103 343.265 167.654 356.404 126.128L356.009 124.992C342.903 166.404 328.173 208.737 309.303 237.853C298.857 254.066 287.423 267.316 275.32 277.24C266.804 284.219 258.309 289.355 250.391 293.831C248.268 295.033 246.146 296.218 244.029 297.403C240.328 299.461 236.5 301.6 232.766 303.806C207.562 318.586 188.884 336.84 173.99 361.249C170.31 367.273 166.817 373.659 163.604 380.226C149.977 408.026 137.698 444.187 126.062 490.767C115.73 532.376 106.841 582.445 96.3448 658.175L96.8493 658.8H96.8602Z" fill="#62C8A1"/>
<path d="M91.509 657.648C101.49 586.149 111.344 533.314 122.525 491.376C134.42 447.035 147.565 411.104 161.609 384.572C164.893 378.366 168.474 372.309 172.242 366.565C187.278 343.72 206.181 326.536 231.725 312.496C235.163 310.587 238.678 308.744 242.073 306.95C244.546 305.649 247.03 304.333 249.509 302.999C257.054 298.917 265.944 293.799 274.701 286.82C286.98 277.027 298.561 263.892 309.134 247.762C327.993 219.156 343.046 176.394 356.503 134.456L356.109 133.32C333.395 204.128 319.987 229.459 308.882 246.297C298.348 262.378 286.799 275.479 274.559 285.223C265.823 292.186 256.945 297.288 249.41 301.37C246.931 302.703 244.453 304.02 241.979 305.32C238.579 307.114 235.064 308.958 231.626 310.867C206.027 324.94 187.081 342.172 171.995 365.1C168.211 370.861 164.619 376.934 161.318 383.173C147.225 409.804 134.03 445.866 122.103 490.339C110.889 532.393 101.012 585.359 91.0099 657.006L91.5144 657.648H91.509Z" fill="#62C8A1"/>
<path d="M86.1506 656.512C95.9831 586.544 106.276 533.956 118.533 491.047C130.866 448.104 144.581 413.293 159.283 387.6C162.661 381.691 166.335 375.947 170.206 370.499C185.611 348.838 204.223 333.153 230.556 319.607C233.649 318.01 236.753 316.463 239.862 314.916C242.741 313.484 245.62 312.052 248.504 310.571C256.039 306.686 264.95 301.781 273.922 294.852C286.337 285.24 298.04 272.253 308.695 256.271C326.429 229.821 340.665 191.8 356.585 142.834L356.19 141.682C340.309 190.516 326.111 228.455 308.448 254.79C297.826 270.723 286.162 283.676 273.779 293.255C264.83 300.185 255.935 305.073 248.406 308.958C245.527 310.439 242.642 311.871 239.769 313.303C236.654 314.85 233.55 316.397 230.457 317.994C204.075 331.556 185.419 347.291 169.971 369.017C166.088 374.482 162.398 380.259 159.003 386.201C144.246 411.993 130.487 446.919 118.11 490.01C105.816 533.067 95.495 585.77 85.6406 655.92L86.1451 656.561L86.1506 656.512Z" fill="#62C8A1"/>
<path d="M80.7983 655.36C90.406 587.449 101.445 533.594 114.546 490.685C127.318 449.076 141.586 415.4 156.969 390.596C160.484 384.917 164.152 379.617 168.183 374.383C188.084 348.559 211.352 335.325 229.399 326.684C232.124 325.367 234.861 324.084 237.603 322.816C240.898 321.269 244.205 319.738 247.512 318.109C254.608 314.636 263.93 309.764 273.149 302.835C285.701 293.404 297.519 280.565 308.267 264.715C327.899 235.928 342.947 192.837 356.684 151.146L356.294 149.994C342.596 191.57 327.581 234.562 308.026 263.234C297.31 279.035 285.531 291.823 273.017 301.238C263.815 308.151 254.504 313.023 247.424 316.479C244.117 318.092 240.816 319.64 237.52 321.17C234.778 322.454 232.042 323.738 229.316 325.038C211.236 333.696 187.93 346.962 167.969 372.853C163.922 378.103 160.242 383.436 156.711 389.131C141.279 414.034 126.956 447.825 114.145 489.565C101.006 532.607 89.9344 586.626 80.2993 654.718L80.8038 655.36H80.7983Z" fill="#62C8A1"/>
<path d="M75.4467 654.208C84.9995 587.136 96.4827 533.528 110.554 490.323C123.754 450.014 138.587 417.474 154.644 393.591C158.252 388.226 162.014 383.222 166.155 378.268C186.033 354.533 208.692 342.452 228.231 333.762C230.551 332.725 232.882 331.704 235.212 330.684C238.914 329.071 242.736 327.392 246.509 325.647C257.049 320.759 265.028 316.183 272.371 310.817C285.066 301.551 296.993 288.894 307.834 273.159C327.379 244.964 342.728 201.544 356.772 159.474L356.383 158.306C342.371 200.277 327.066 243.598 307.593 271.677C296.79 287.347 284.896 299.971 272.239 309.204C264.913 314.554 256.95 319.113 246.421 324.001C242.654 325.746 238.832 327.425 235.13 329.038C232.799 330.058 230.469 331.079 228.149 332.116C208.577 340.806 185.88 352.92 165.946 376.721C161.795 381.691 158.017 386.728 154.397 392.094C138.286 416.058 123.403 448.714 110.159 489.154C96.0385 532.491 84.517 586.264 74.9367 653.55L75.4413 654.191L75.4467 654.208Z" fill="#62C8A1"/>
<path d="M70.0938 653.056C79.6246 586.577 91.5575 533.232 106.567 489.961C120.194 450.903 135.587 419.482 152.324 396.587C156.014 391.534 159.875 386.81 164.125 382.152C184.031 360.344 207.112 349.036 227.068 340.839C228.949 340.066 230.835 339.292 232.727 338.518C236.911 336.807 241.238 335.046 245.505 333.186C256.045 328.561 264.089 324.117 271.591 318.817C284.423 309.731 296.471 297.222 307.395 281.635C326.868 254 341.905 212.029 356.854 167.819L356.47 166.65C341.554 210.761 326.561 252.634 307.159 280.154C296.268 295.691 284.259 308.167 271.465 317.22C263.98 322.52 255.946 326.948 245.428 331.573C241.167 333.449 236.84 335.21 232.656 336.905C230.77 337.679 228.883 338.436 226.997 339.226C207.014 347.423 183.899 358.763 163.938 380.621C159.677 385.296 155.806 390.036 152.099 395.106C135.307 418.083 119.859 449.602 106.188 488.792C91.1242 532.212 79.1531 585.737 69.5893 652.414L70.0938 653.056Z" fill="#62C8A1"/>
<path d="M64.7367 651.92C74.136 586.791 86.8639 532.179 102.575 489.631C116.625 451.758 132.583 421.473 150.005 399.615C153.799 394.859 157.753 390.431 162.096 386.069C181.893 366.252 204.464 356.031 225.906 347.95L230.068 346.37C234.795 344.592 239.687 342.749 244.502 340.74C254.899 336.428 263.256 332.001 270.813 326.816C283.788 317.911 295.945 305.551 306.962 290.095C326.381 263.003 341.083 222.464 356.942 176.164L356.558 174.979C340.737 221.18 326.068 261.621 306.727 288.614C295.748 304.02 283.623 316.331 270.687 325.219C263.147 330.388 254.806 334.815 244.425 339.111C239.61 341.103 234.724 342.946 229.997 344.724L225.835 346.304C204.366 354.402 181.767 364.639 161.921 384.489C157.567 388.851 153.596 393.295 149.791 398.068C132.308 420.008 116.301 450.392 102.208 488.38C86.4362 531.092 73.6644 585.885 64.2322 651.245L64.7367 651.904V651.92Z" fill="#62C8A1"/>
<path d="M59.3844 650.768C68.7946 585.935 81.9887 531.586 98.5882 489.269C113.06 452.549 129.577 423.383 147.685 402.611C151.567 398.151 155.62 394.019 160.067 389.954C180.681 371.19 203.318 362.401 224.738 355.027L227.359 354.122C232.646 352.295 238.113 350.402 243.498 348.295C253.906 344.23 262.335 339.95 270.029 334.815C283.141 326.092 295.419 313.895 306.518 298.572C325.849 272.039 340.825 231.204 357.019 184.509L356.64 183.324C340.485 229.92 325.541 270.64 306.293 297.074C295.227 312.348 282.982 324.512 269.914 333.219C262.236 338.337 253.819 342.6 243.432 346.666C238.047 348.773 232.585 350.665 227.299 352.492L224.678 353.398C203.236 360.788 180.566 369.577 159.908 388.39C155.45 392.456 151.386 396.603 147.487 401.08C129.32 421.918 112.747 451.182 98.2318 488.018C81.5665 530.516 68.3285 585.046 58.8854 650.126L59.3899 650.784L59.3844 650.768Z" fill="#62C8A1"/>
<path d="M54.0322 649.616C63.4753 584.964 77.1245 530.895 94.5959 488.907C109.49 453.273 126.567 425.243 145.365 405.607C149.341 401.442 153.487 397.607 158.044 393.855C178.372 377.116 200.642 369.297 223.581 362.121L224.54 361.825C230.425 359.965 236.506 358.056 242.505 355.85C252.914 352.032 261.414 347.884 269.261 342.831C282.51 334.288 294.903 322.24 306.096 307.048C326.907 278.936 342.958 233.195 357.117 192.854L356.739 191.669C342.612 231.928 326.594 277.553 305.871 305.55C294.711 320.693 282.356 332.692 269.146 341.218C261.315 346.271 252.831 350.402 242.44 354.221C236.446 356.41 230.364 358.335 224.486 360.179L223.526 360.475C200.565 367.651 178.268 375.486 157.901 392.258C153.339 396.027 149.176 399.879 145.19 404.043C126.336 423.745 109.199 451.874 94.2614 487.623C76.7187 529.776 63.0146 584.058 53.5386 648.957L54.0431 649.616H54.0322Z" fill="#62C8A1"/>
<path d="M48.6796 648.48C58.1666 583.927 72.271 530.121 90.6089 488.561C105.925 453.98 123.567 427.086 143.045 408.619C147.109 404.767 151.353 401.212 156.014 397.755C177.522 381.839 201.371 375.124 222.418 369.215C229.218 367.289 235.349 365.512 241.502 363.405C251.915 359.817 260.487 355.834 268.482 350.83C281.868 342.469 294.377 330.585 305.662 315.525C326.38 287.988 342.053 243.877 357.205 201.215L356.832 200.013C341.713 242.577 326.073 286.589 305.437 314.027C294.19 329.038 281.72 340.889 268.372 349.233C260.393 354.221 251.839 358.204 241.441 361.775C235.294 363.899 229.163 365.66 222.369 367.586C201.305 373.511 177.434 380.21 155.888 396.159C151.216 399.615 146.966 403.187 142.886 407.055C123.347 425.588 105.651 452.565 90.2853 487.261C71.8707 528.986 57.706 583.021 48.1861 647.838L48.6851 648.496L48.6796 648.48Z" fill="#62C8A1"/>
<path d="M43.3277 647.328C52.8641 582.791 67.4291 529.249 86.6224 488.199C102.147 455.1 120.858 428.617 140.731 411.614C144.888 408.059 149.226 404.8 153.991 401.64C174.78 387.913 197.566 382.218 219.605 376.704L221.256 376.293C227.09 374.828 233.868 373.067 240.504 370.943C250.791 367.635 259.686 363.668 267.704 358.829C281.232 350.649 293.856 338.914 305.224 323.985C325.854 297.008 341.121 254.527 357.287 209.543L356.914 208.342C340.781 253.226 325.547 295.609 304.999 322.487C293.664 337.383 281.079 349.069 267.588 357.233C259.587 362.072 250.704 366.022 240.438 369.33C233.808 371.454 227.03 373.198 221.201 374.68L219.55 375.091C197.494 380.605 174.687 386.316 153.865 400.06C149.089 403.22 144.74 406.495 140.572 410.051C120.639 427.119 101.867 453.684 86.2989 486.883C67.0287 528.113 52.3979 581.886 42.8232 646.686L43.3222 647.361L43.3277 647.328Z" fill="#62C8A1"/>
<path d="M37.9703 646.176C47.567 581.606 62.5927 528.327 82.6305 487.821C98.7036 455.429 117.469 430.789 138.412 414.593C142.75 411.285 147.312 408.24 151.962 405.524C171.995 393.838 193.694 389.114 214.681 384.555L220.093 383.37C226.241 382.004 232.843 380.473 239.506 378.482C249.799 375.404 258.771 371.585 266.931 366.812C280.596 358.813 293.335 347.242 304.796 332.429C325.339 305.978 340.683 263.793 356.926 219.123L357.386 217.855L357.013 216.637L356.553 217.905C340.343 262.477 325.032 304.579 304.577 330.914C293.154 345.678 280.448 357.216 266.826 365.183C258.683 369.956 249.728 373.758 239.451 376.836C232.799 378.827 226.197 380.358 220.055 381.724L214.642 382.909C193.639 387.485 171.924 392.209 151.858 403.895C147.197 406.627 142.624 409.672 138.275 412.997C117.277 429.242 98.4514 453.964 82.3235 486.455C62.2033 527.126 47.1119 580.635 37.4713 645.501L37.9703 646.176Z" fill="#62C8A1"/>
<path d="M32.6178 645.024C42.2803 580.355 57.7665 527.356 78.638 487.459C95.1552 455.972 114.486 432.468 136.086 417.589C140.512 414.593 145.168 411.828 149.928 409.409C169.203 399.599 189.855 395.813 209.822 392.143C212.854 391.583 215.887 391.024 218.919 390.448C224.316 389.411 231.423 387.979 238.491 386.02C248.795 383.173 257.838 379.502 266.141 374.795C279.949 366.977 292.803 355.57 304.346 340.889C324.812 314.949 340.106 273.373 356.295 229.344L357.452 226.2L357.084 224.982L355.927 228.126C339.772 272.056 324.516 313.55 304.133 339.374C292.622 354.007 279.801 365.38 266.036 373.182C257.756 377.873 248.724 381.527 238.442 384.374C231.379 386.333 224.277 387.765 218.887 388.802C215.854 389.378 212.816 389.937 209.789 390.497C189.806 394.167 169.143 397.953 149.834 407.779C145.063 410.215 140.397 412.98 135.96 415.976C114.299 430.904 94.9139 454.491 78.3364 486.076C57.3717 526.138 41.8196 579.4 32.1078 644.349L32.6068 645.024H32.6178Z" fill="#62C8A1"/>
<path d="M27.2657 643.888C37.0049 579.104 52.9464 526.352 74.6513 487.113C91.6237 456.499 111.514 434.131 133.772 420.601C138.286 417.902 143.046 415.449 147.91 413.31C166.439 405.195 186.077 402.298 205.073 399.484C209.301 398.858 213.534 398.233 217.773 397.558C225.698 396.274 231.785 395.04 237.51 393.591C247.841 390.958 256.955 387.436 265.384 382.827C279.329 375.19 292.299 363.948 303.935 349.382C324.346 323.919 339.596 282.902 355.741 239.466L357.567 234.561L357.199 233.344L355.373 238.248C339.262 281.586 324.05 322.52 303.721 347.867C292.123 362.384 279.187 373.593 265.28 381.214C256.873 385.822 247.77 389.328 237.46 391.962C231.741 393.41 225.659 394.645 217.741 395.928C213.507 396.603 209.274 397.229 205.046 397.854C186.039 400.669 166.385 403.566 147.833 411.697C142.958 413.836 138.192 416.289 133.668 419.004C111.349 432.567 91.3989 455.017 74.3716 485.73C52.568 525.151 36.5497 578.133 26.7666 643.246L27.2657 643.921V643.888Z" fill="#62C8A1"/>
<path d="M21.9134 642.736C31.7294 577.787 48.1315 525.299 70.6645 486.751C87.8508 457.404 108.87 435.563 131.453 423.597C136.043 421.194 140.901 419.037 145.881 417.194C163.67 410.627 182.353 408.553 200.417 406.545C205.72 405.952 211.204 405.343 216.605 404.636C224.348 403.599 230.666 402.496 236.501 401.13C246.843 398.71 256.034 395.336 264.594 390.81C278.677 383.37 291.761 372.277 303.491 357.842C323.858 332.824 339.075 292.317 355.187 249.441L357.644 242.906L357.282 241.672L354.825 248.206C338.752 291.001 323.567 331.425 303.288 356.327C291.596 370.713 278.55 381.774 264.506 389.197C255.963 393.723 246.788 397.081 236.462 399.5C230.633 400.866 224.316 401.969 216.583 403.006C211.187 403.714 205.703 404.323 200.401 404.915C182.326 406.923 163.632 408.997 145.815 415.581C140.824 417.424 135.96 419.581 131.359 421.984C108.717 433.982 87.6369 455.89 70.3958 485.335C47.7586 524.064 31.2797 576.8 21.4143 642.077L21.9134 642.752V642.736Z" fill="#62C8A1"/>
<path d="M16.5554 641.584C26.4537 576.421 43.3164 524.212 66.672 486.372C84.3189 457.832 105.92 437.159 129.133 426.576C133.799 424.469 138.751 422.626 143.851 421.078C160.922 415.91 178.69 414.61 195.876 413.342C202.287 412.882 208.911 412.388 215.437 411.713C223.131 410.906 229.508 409.935 235.497 408.668C245.861 406.463 255.123 403.236 263.815 398.809C278.035 391.55 291.24 380.605 303.052 366.302C323.391 341.712 338.582 301.666 354.666 259.283L357.726 251.235L357.364 250L354.304 258.049C338.258 300.349 323.095 340.296 302.844 364.771C291.064 379.041 277.903 389.937 263.717 397.179C255.041 401.607 245.795 404.833 235.453 407.022C229.47 408.289 223.103 409.261 215.415 410.067C208.889 410.742 202.265 411.236 195.86 411.697C178.663 412.947 160.884 414.264 143.791 419.432C138.685 420.98 133.723 422.839 129.045 424.946C105.772 435.563 84.1106 456.301 66.4088 484.924C42.9435 522.928 26.004 575.401 16.0509 640.892L16.5499 641.567L16.5554 641.584Z" fill="#62C8A1"/>
<path d="M11.2033 640.431C21.1893 575.039 38.5072 523.093 62.6853 486.01C80.7984 458.26 102.975 438.739 126.813 429.571C131.628 427.728 136.541 426.23 141.822 424.963C158.181 421.045 175.082 420.469 191.429 419.91C198.914 419.646 206.652 419.383 214.274 418.807C221.837 418.231 228.45 417.375 234.499 416.223C244.88 414.231 254.213 411.153 263.042 406.808C277.607 399.632 290.554 389.164 302.624 374.778C322.947 350.583 338.121 310.982 354.183 269.06C355.39 265.917 356.601 262.756 357.819 259.58L357.462 258.329C356.245 261.489 355.033 264.666 353.827 267.809C337.797 309.649 322.657 349.151 302.421 373.248C290.39 387.584 277.475 398.035 262.954 405.195C254.147 409.54 244.83 412.602 234.466 414.593C228.428 415.745 221.82 416.585 214.264 417.177C206.646 417.754 198.909 418.033 191.423 418.28C175.071 418.84 158.164 419.432 141.784 423.35C136.492 424.617 131.573 426.131 126.747 427.958C102.849 437.143 80.6065 456.729 62.4386 484.562C38.1508 521.809 20.7451 574.035 10.7097 639.757L11.2088 640.448L11.2033 640.431Z" fill="#62C8A1"/>
<path d="M5.85138 639.296C15.9251 573.656 33.7092 521.957 58.6989 485.665C77.289 458.671 100.041 440.319 124.499 432.583C129.396 431.036 134.403 429.835 139.799 428.864C155.483 426.082 171.567 426.164 187.124 426.23C195.641 426.279 204.448 426.312 213.112 425.884C220.641 425.506 227.31 424.815 233.496 423.761C243.893 421.984 253.303 419.054 262.258 414.791C276.96 407.812 290.023 397.476 302.186 383.222C322.498 359.405 337.661 320.216 353.712 278.705C355.099 275.117 356.492 271.513 357.901 267.892L357.545 266.641C356.141 270.262 354.743 273.866 353.355 277.454C337.337 318.866 322.213 357.973 301.983 381.691C289.858 395.912 276.834 406.199 262.17 413.161C253.232 417.408 243.838 420.338 233.463 422.115C227.282 423.169 220.62 423.86 213.101 424.239C204.442 424.666 195.635 424.617 187.119 424.584C171.556 424.502 155.461 424.436 139.761 427.218C134.354 428.172 129.341 429.39 124.433 430.937C99.9153 438.69 77.0971 457.091 58.4521 484.167C33.3417 520.641 15.4755 572.603 5.34683 638.605L5.84589 639.296H5.85138Z" fill="#62C8A1"/>
<path d="M0.499054 638.144C10.2383 575.006 27.4191 525.085 51.5589 489.763C71.2513 460.959 95.6707 442.212 122.185 435.563C142.371 430.51 162.985 431.431 182.924 432.32C199.183 433.044 215.997 433.801 232.503 431.316C259.544 427.234 282.197 414.281 301.758 391.698C322.07 368.244 337.227 329.416 353.278 288.318C354.841 284.318 356.415 280.285 358 276.253L357.644 275.002C356.059 279.035 354.485 283.067 352.922 287.067C336.909 328.083 321.79 366.812 301.561 390.168C282.055 412.684 259.456 425.605 232.475 429.67C215.986 432.155 199.183 431.398 182.929 430.674C162.979 429.785 142.354 428.847 122.136 433.917C95.561 440.583 71.0703 459.379 51.3176 488.282C27.0627 523.768 9.7941 573.952 0 637.452L0.499054 638.144Z" fill="url(#paint2_linear_148_1277)"/>
</g>
<defs>
<linearGradient id="paint0_linear_148_1277" x1="355.187" y1="341.596" x2="171.298" y2="341.596" gradientUnits="userSpaceOnUse">
<stop stop-color="#62C8A1"/>
<stop offset="0.58" stop-color="#62C8A1"/>
<stop offset="0.63" stop-color="#62C8A1"/>
<stop offset="0.71" stop-color="#62C8A1"/>
<stop offset="0.78" stop-color="#62C8A1"/>
<stop offset="0.85" stop-color="#62C8A1"/>
<stop offset="0.89" stop-color="#62C8A1"/>
<stop offset="1" stop-color="#62C8A1"/>
</linearGradient>
<linearGradient id="paint1_linear_148_1277" x1="355.625" y1="359.553" x2="144.531" y2="359.553" gradientUnits="userSpaceOnUse">
<stop stop-color="#62C8A1"/>
<stop offset="0.58" stop-color="#62C8A1"/>
<stop offset="0.63" stop-color="#62C8A1"/>
<stop offset="0.71" stop-color="#62C8A1"/>
<stop offset="0.78" stop-color="#62C8A1"/>
<stop offset="0.85" stop-color="#62C8A1"/>
<stop offset="0.89" stop-color="#62C8A1"/>
<stop offset="1" stop-color="#62C8A1"/>
</linearGradient>
<linearGradient id="paint2_linear_148_1277" x1="357.995" y1="456.565" x2="-2.12535e-05" y2="456.565" gradientUnits="userSpaceOnUse">
<stop stop-color="#62C8A1"/>
<stop offset="0.58" stop-color="#62C8A1"/>
<stop offset="0.63" stop-color="#62C8A1"/>
<stop offset="0.71" stop-color="#62C8A1"/>
<stop offset="0.78" stop-color="#62C8A1"/>
<stop offset="0.85" stop-color="#62C8A1"/>
<stop offset="0.89" stop-color="#62C8A1"/>
<stop offset="1" stop-color="#62C8A1"/>
</linearGradient>
</defs>
</svg>
