<svg width="252" height="47" viewBox="0 0 252 47" fill="none" xmlns="http://www.w3.org/2000/svg">
<path d="M23.3128 0.696655C10.6141 0.696655 0.319336 10.9915 0.319336 23.6901C0.319336 36.3888 10.6141 46.6836 23.3128 46.6836C36.0115 46.6836 46.3063 36.3888 46.3063 23.6901C46.3063 10.9915 36.0115 0.696655 23.3128 0.696655ZM23.3128 2.43859C35.0499 2.43859 44.5644 11.953 44.5644 23.6901C44.5644 28.153 43.1882 32.2918 40.8366 35.7094H24.1838V31.0446C25.3439 30.6753 26.187 29.5883 26.187 28.3062C26.187 28.2923 26.187 28.2749 26.187 28.261L28.6048 27.0869C29.0925 27.4666 29.7022 27.6966 30.3711 27.6966C31.2177 27.6966 31.9772 27.3273 32.5032 26.7455L34.8618 27.7837C34.8305 27.9544 34.813 28.1286 34.813 28.3062C34.813 29.8949 36.0986 31.1804 37.6872 31.1804C39.2759 31.1804 40.5614 29.8949 40.5614 28.3062C40.5614 26.7176 39.2759 25.4321 37.6872 25.4321C36.9103 25.4321 36.2066 25.7421 35.691 26.2438L33.2244 25.1603C33.2383 25.0488 33.2453 24.9374 33.2453 24.8259C33.2453 24.7945 33.2418 24.7632 33.2418 24.7283L35.7885 23.4916C36.2972 23.941 36.9591 24.2127 37.6907 24.2127C39.2793 24.2127 40.5649 22.9272 40.5649 21.3385C40.5649 19.7499 39.2793 18.4643 37.6907 18.4643C36.1021 18.4643 34.8165 19.7499 34.8165 21.3385C34.8165 21.5615 34.8444 21.781 34.8932 21.99L32.653 23.077C32.127 22.3941 31.3048 21.9482 30.3746 21.9482C28.786 21.9482 27.5004 23.2337 27.5004 24.8224C27.5004 25.1046 27.5422 25.3763 27.6189 25.6306L25.6296 26.5957C25.2742 26.1149 24.776 25.7491 24.1942 25.5644V21.6347C25.3544 21.2654 26.1974 20.1784 26.1974 18.8963C26.1974 18.7674 26.187 18.6385 26.1696 18.5166L28.3574 17.454C28.8765 17.9696 29.5907 18.2867 30.3816 18.2867C31.9702 18.2867 33.2557 17.0011 33.2557 15.4125C33.2557 13.8238 31.9702 12.5383 30.3816 12.5383C28.7929 12.5383 27.5074 13.8238 27.5074 15.4125C27.5074 15.5832 27.5248 15.7469 27.5527 15.9072L25.4275 16.9384C25.0931 16.5796 24.675 16.3078 24.1977 16.1545V12.2247C25.3578 11.8555 26.2009 10.7685 26.2009 9.48643C26.2009 7.89779 24.9154 6.61225 23.3267 6.61225C21.7381 6.61225 20.4526 7.89779 20.4526 9.48643C20.4526 10.7685 21.2957 11.8555 22.4558 12.2247V16.1545C21.9785 16.3078 21.5569 16.5831 21.2225 16.9419L18.9371 15.834C18.958 15.6947 18.9719 15.5553 18.9719 15.4125C18.9719 13.8238 17.6864 12.5383 16.0977 12.5383C14.5091 12.5383 13.2236 13.8238 13.2236 15.4125C13.2236 17.0011 14.5091 18.2867 16.0977 18.2867C16.913 18.2867 17.6481 17.9452 18.1706 17.3983L20.4769 18.5201C20.4595 18.6455 20.4491 18.7674 20.4491 18.8963C20.4491 20.1784 21.2922 21.2654 22.4523 21.6347V25.5644C21.8705 25.7491 21.3688 26.1184 21.0135 26.5992L18.8709 25.5575C18.9336 25.3206 18.9684 25.0732 18.9684 24.8189C18.9684 23.2303 17.6829 21.9447 16.0943 21.9447C15.1919 21.9447 14.3872 22.3628 13.8576 23.0143L11.5931 21.9134C11.6314 21.7252 11.6523 21.5336 11.6523 21.335C11.6523 19.7464 10.3668 18.4609 8.77815 18.4609C7.18951 18.4609 5.90396 19.7464 5.90396 21.335C5.90396 22.9237 7.18951 24.2092 8.77815 24.2092C9.53763 24.2092 10.2239 23.9131 10.7361 23.4358L13.227 24.6447C13.2236 24.7039 13.2166 24.7597 13.2166 24.8189C13.2166 24.9548 13.2305 25.0906 13.2479 25.223L10.8232 26.2891C10.3006 25.7595 9.57595 25.4286 8.77466 25.4286C7.18602 25.4286 5.90048 26.7141 5.90048 28.3028C5.90048 29.8914 7.18602 31.1769 8.77466 31.1769C10.3633 31.1769 11.6488 29.8914 11.6488 28.3028C11.6488 28.146 11.6314 27.9962 11.6105 27.8464L14.0074 26.7908C14.53 27.3447 15.2721 27.6896 16.0943 27.6896C16.791 27.6896 17.4286 27.4422 17.9233 27.0312L20.4491 28.2575C20.4491 28.2575 20.4491 28.2853 20.4491 28.2993C20.4491 29.5813 21.2922 30.6683 22.4523 31.0376V35.7025H5.789C3.44087 32.2848 2.06127 28.146 2.06127 23.6832C2.06127 11.953 11.5757 2.43859 23.3128 2.43859ZM38.2063 38.8449H8.41931C7.96641 38.399 7.53441 37.9356 7.12331 37.4514H39.4988C39.0877 37.9356 38.6557 38.399 38.2028 38.8449H38.2063ZM18.6375 44.4191C17.4878 44.1613 16.373 43.8094 15.2999 43.3739H31.3257C30.2561 43.8094 29.1413 44.1613 27.9882 44.4191H18.634H18.6375ZM11.931 41.632C11.4154 41.3045 10.9138 40.9561 10.4295 40.5868H36.1996C35.7154 40.9561 35.2137 41.3045 34.6981 41.632H11.931ZM23.3128 27.1566C23.9469 27.1566 24.4625 27.6722 24.4625 28.3062C24.4625 28.9403 23.9469 29.4559 23.3128 29.4559C22.6787 29.4559 22.1631 28.9403 22.1631 28.3062C22.1631 27.6722 22.6787 27.1566 23.3128 27.1566ZM23.3128 17.7502C23.9469 17.7502 24.4625 18.2658 24.4625 18.8998C24.4625 19.5339 23.9469 20.0495 23.3128 20.0495C22.6787 20.0495 22.1631 19.5339 22.1631 18.8998C22.1631 18.2658 22.6787 17.7502 23.3128 17.7502ZM23.3128 10.6431C22.6787 10.6431 22.1631 10.1275 22.1631 9.4934C22.1631 8.85934 22.6787 8.34373 23.3128 8.34373C23.9469 8.34373 24.4625 8.85934 24.4625 9.4934C24.4625 10.1275 23.9469 10.6431 23.3128 10.6431ZM29.218 24.8224C29.218 24.1883 29.7336 23.6727 30.3676 23.6727C31.0017 23.6727 31.5173 24.1883 31.5173 24.8224C31.5173 25.4564 31.0017 25.9721 30.3676 25.9721C29.7336 25.9721 29.218 25.4564 29.218 24.8224ZM37.6837 27.1566C38.3178 27.1566 38.8334 27.6722 38.8334 28.3062C38.8334 28.9403 38.3178 29.4559 37.6837 29.4559C37.0497 29.4559 36.5341 28.9403 36.5341 28.3062C36.5341 27.6722 37.0497 27.1566 37.6837 27.1566ZM36.5341 21.3385C36.5341 20.7045 37.0497 20.1889 37.6837 20.1889C38.3178 20.1889 38.8334 20.7045 38.8334 21.3385C38.8334 21.9726 38.3178 22.4882 37.6837 22.4882C37.0497 22.4882 36.5341 21.9726 36.5341 21.3385ZM29.218 15.416C29.218 14.7819 29.7336 14.2663 30.3676 14.2663C31.0017 14.2663 31.5173 14.7819 31.5173 15.416C31.5173 16.05 31.0017 16.5656 30.3676 16.5656C29.7336 16.5656 29.218 16.05 29.218 15.416ZM17.2335 15.416C17.2335 16.05 16.7179 16.5656 16.0838 16.5656C15.4497 16.5656 14.9341 16.05 14.9341 15.416C14.9341 14.7819 15.4497 14.2663 16.0838 14.2663C16.7179 14.2663 17.2335 14.7819 17.2335 15.416ZM17.2335 24.8224C17.2335 25.4564 16.7179 25.9721 16.0838 25.9721C15.4497 25.9721 14.9341 25.4564 14.9341 24.8224C14.9341 24.1883 15.4497 23.6727 16.0838 23.6727C16.7179 23.6727 17.2335 24.1883 17.2335 24.8224ZM8.7677 22.4882C8.13363 22.4882 7.61802 21.9726 7.61802 21.3385C7.61802 20.7045 8.13363 20.1889 8.7677 20.1889C9.40176 20.1889 9.91737 20.7045 9.91737 21.3385C9.91737 21.9726 9.40176 22.4882 8.7677 22.4882ZM9.91737 28.3062C9.91737 28.9403 9.40176 29.4559 8.7677 29.4559C8.13363 29.4559 7.61802 28.9403 7.61802 28.3062C7.61802 27.6722 8.13363 27.1566 8.7677 27.1566C9.40176 27.1566 9.91737 27.6722 9.91737 28.3062Z" fill="#62C8A1"/>
<path d="M68.0804 25.2577C68.0804 25.2577 71.5642 24.561 71.9126 20.7287C71.9126 16.1997 67.9236 16.1997 64.694 16.1997H56.932V31.1803H60.0675V25.2577H63.8997L68.3835 31.1803H72.6303L68.0804 25.2577ZM60.2417 22.1362V19.161H67.0979C67.9201 19.161 68.5855 19.8264 68.5855 20.6486C68.5855 21.4708 67.9201 22.1362 67.0979 22.1362H60.2417Z" fill="#62C8A1"/>
<path d="M75.3895 16.1997V31.1803H88.9522V28.1633H78.7062V25.0835H87.4158V22.2965H78.7062V19.161H88.5968V16.1997H75.3895Z" fill="#62C8A1"/>
<path d="M114.823 16.1997H111.385V31.1803H114.823V16.1997Z" fill="#62C8A1"/>
<path d="M100.856 16.1997H92.6171V31.1803H100.856C104.978 31.1803 108.319 27.8393 108.319 23.7179V23.6621C108.319 19.5407 104.978 16.1997 100.856 16.1997ZM104.835 24.1603C104.835 26.3552 103.055 28.1354 100.86 28.1354H96.1253V19.161H100.86C103.055 19.161 104.835 20.9412 104.835 23.1361V24.1603Z" fill="#62C8A1"/>
<path d="M132.357 16.1997H125.163C121.042 16.1997 117.701 19.5407 117.701 23.6621V23.7179C117.701 27.8393 121.042 31.1803 125.163 31.1803H132.357V28.219H125.16C122.965 28.219 121.185 26.4388 121.185 24.2439V23.2197C121.185 21.0249 122.965 19.2446 125.16 19.2446H132.357V16.1997Z" fill="#62C8A1"/>
<path d="M148.383 31.1803H151.825L144.502 16.1997H140.973L133.678 31.1803H137.235L139.608 26.1287H145.955L148.38 31.1803H148.383ZM140.924 23.3416L142.753 19.4467L144.621 23.3416H140.921H140.924Z" fill="#62C8A1"/>
<path d="M168.959 20.6416L170.471 19.3735C170.471 19.3735 168.98 16.4261 163.266 16.1997C157.553 15.9732 156.285 18.9519 156.285 20.9761C156.285 23.0002 158.065 24.5993 163.824 24.8222C169.583 25.0452 169.14 27.0902 168.537 28.0901C167.935 29.09 166.757 29.846 163.378 29.846C159.999 29.846 158.152 28.1563 157.305 26.9544L155.727 28.1772C155.727 28.1772 157.974 31.9781 163.799 31.7342C169.624 31.4903 170.805 28.9785 170.938 26.9962C171.07 25.0173 169.736 23.15 164.245 22.8608C158.755 22.5717 158.396 21.5718 158.42 20.349C158.441 19.1261 160.378 17.9242 163.468 18.081C166.559 18.2377 168.36 19.6383 168.962 20.6381L168.959 20.6416Z" fill="#62C8A1"/>
<path d="M194.792 26.439C194.074 25.6272 192.649 25.1604 190.552 25.0489C186.664 24.8399 186.678 24.1013 186.692 23.4533C186.696 23.2234 186.817 22.9934 187.044 22.7809C187.622 22.2409 188.727 21.9553 189.998 22.0215C192.151 22.1329 193.308 23.1537 193.653 23.7425L193.757 23.9236L195.064 22.8053L195.005 22.6834C194.959 22.5963 193.883 20.5095 189.876 20.3457C188.072 20.2726 186.716 20.6558 185.856 21.4849C184.999 22.3071 184.87 23.3453 184.87 23.8923C184.87 25.6934 186.629 26.6376 190.249 26.7804C192.514 26.871 193.252 27.3761 193.475 27.7838C193.674 28.1496 193.524 28.5537 193.364 28.8254C193.029 29.3968 192.36 29.9786 189.949 29.9786C187.539 29.9786 186.403 28.7488 185.898 28.0137L185.793 27.8604L184.438 28.9334L184.515 29.0623C184.529 29.0902 186.068 31.6683 189.88 31.6683C190.002 31.6683 190.127 31.6683 190.253 31.6613C193.493 31.5219 195.207 30.3409 195.353 28.1565C195.398 27.4807 195.21 26.9058 194.799 26.4425L194.792 26.439Z" fill="#62C8A1"/>
<path d="M251.122 26.439C250.405 25.6272 248.98 25.1604 246.882 25.0489C242.994 24.8399 243.008 24.1013 243.022 23.4533C243.026 23.2234 243.148 22.9934 243.374 22.7809C243.953 22.2409 245.057 21.9553 246.329 22.0215C248.482 22.1329 249.638 23.1537 249.983 23.7425L250.088 23.9236L251.394 22.8053L251.335 22.6834C251.29 22.5963 250.213 20.5095 246.207 20.3457C244.402 20.2726 243.047 20.6558 242.186 21.4849C241.329 22.3071 241.2 23.3453 241.2 23.8923C241.2 25.6934 242.96 26.6376 246.579 26.7804C248.844 26.871 249.582 27.3761 249.805 27.7838C250.004 28.1496 249.854 28.5537 249.694 28.8254C249.36 29.3968 248.691 29.9786 246.28 29.9786C243.869 29.9786 242.733 28.7488 242.228 28.0137L242.124 27.8604L240.768 28.9334L240.845 29.0623C240.859 29.0902 242.399 31.6683 246.21 31.6683C246.332 31.6683 246.457 31.6683 246.583 31.6613C249.823 31.5219 251.537 30.3409 251.683 28.1565C251.729 27.4807 251.54 26.9058 251.129 26.4425L251.122 26.439Z" fill="#62C8A1"/>
<path d="M181.943 20.6869L177.899 28.7903L173.624 20.6869H171.443L176.906 30.7761L176.725 31.1385C176.725 31.1385 175.453 34.1555 172.088 32.7619V34.7791C172.088 34.7791 175.024 35.4619 176.327 34.4237C177.63 33.3856 178.024 32.4623 178.024 32.4623L184.138 20.6869H181.936H181.943Z" fill="#62C8A1"/>
<path d="M218.945 25.9092C218.945 22.7284 216.214 20.1504 212.842 20.1504C209.469 20.1504 206.738 22.7284 206.738 25.9092C206.738 29.299 209.957 31.6088 212.842 31.668C215.733 31.7273 218.064 29.7554 218.552 28.8461L217.217 27.78C217.015 28.2504 215.106 29.9017 212.842 29.8669C210.985 29.839 208.978 28.4594 208.689 26.4179H218.949V25.9127L218.945 25.9092ZM212.842 21.955C214.695 21.955 216.266 23.0908 216.82 24.6655H208.863C209.417 23.0908 210.988 21.955 212.842 21.955Z" fill="#62C8A1"/>
<path d="M202.892 29.9366C201.46 29.8773 201.129 29.1875 201.129 28.4629V22.3557H205.153V20.666H201.129V17.1299H199.091V20.666H197.032V22.3557H199.091V28.6684C199.091 30.3267 200.436 31.668 202.091 31.668C202.091 31.668 205.02 31.4869 205.54 31.1455V29.3966C205.54 29.3966 204.324 29.9958 202.892 29.9366Z" fill="#62C8A1"/>
<path d="M238.56 23.3104C238.539 21.464 237.19 20.3735 234.623 20.2376C232.055 20.1018 230.397 21.9412 230.397 21.9412C230.397 21.9412 229.474 20.3178 227.185 20.2411C225.422 20.1819 223.896 21.2166 223.283 21.7009V20.5303H221.283V31.3372H223.283V23.7529C223.91 23.0387 225.105 21.9622 226.617 21.9169C228.885 21.8507 229.003 23.7529 229.003 23.7529V31.3372H231.003V23.5717C231.348 23.2477 232.846 21.9343 234.56 21.8925C236.518 21.8472 236.577 23.4637 236.577 23.4637V31.3372H238.556C238.556 31.3372 238.577 25.1569 238.556 23.3104H238.56Z" fill="#62C8A1"/>
</svg>
